<svg width="40" height="40" viewBox="0 0 40 40" fill="none" xmlns="http://www.w3.org/2000/svg">
<circle cx="20" cy="20" r="19.5" fill="#2A0F5B" stroke="white"/>
<path d="M10.9609 24.0672C10.2435 24.4814 9.99769 25.3988 10.4119 26.1162C10.8261 26.8336 11.7435 27.0795 12.4609 26.6652L10.9609 24.0672ZM30.0579 15.9983C30.2723 15.1981 29.7974 14.3756 28.9972 14.1612L15.9572 10.6672C15.157 10.4528 14.3345 10.9276 14.1201 11.7278C13.9057 12.528 14.3806 13.3505 15.1808 13.5649L26.7719 16.6708L23.666 28.2619C23.4516 29.0621 23.9265 29.8846 24.7267 30.099C25.5269 30.3134 26.3494 29.8385 26.5638 29.0383L30.0579 15.9983ZM12.4609 26.6652L29.359 16.9092L27.859 14.3111L10.9609 24.0672L12.4609 26.6652Z" fill="white"/>
</svg>
