<svg width="1399" height="572" viewBox="0 0 1399 572" fill="none" xmlns="http://www.w3.org/2000/svg">
<rect width="1399" height="572" fill="#2A0F5B"/>
<g opacity="0.3">
<path d="M535.308 550.219C530.311 550.219 525.447 549.772 520.773 548.882C510.971 547.014 501.915 543.178 493.856 537.48C485.194 531.358 477.597 523.016 471.274 512.686C458.567 491.924 452.209 467.061 446.06 443.014C444.852 438.293 443.603 433.411 442.335 428.673C433.683 396.386 422.715 368.104 408.807 342.212C381.063 290.561 342.045 246.48 295.969 214.736C242.684 178.026 185.393 159.739 134.65 163.245C104.825 165.307 65.4186 184.913 47.8069 218.396C37.3551 238.268 36.5123 260.32 45.3714 282.166L45.1954 282.258C40.5504 270.801 38.5265 259.315 39.1818 248.12C39.783 237.85 42.6284 227.811 47.6407 218.282C55.6125 203.125 68.7589 189.692 85.6593 179.433C101.276 169.954 118.669 164.127 134.638 163.023C161.194 161.19 189.437 165.259 218.583 175.12C245.003 184.06 271.074 197.324 296.07 214.545C342.172 246.306 381.213 290.411 408.973 342.093C422.889 368.003 433.863 396.301 442.521 428.605C443.791 433.342 445.04 438.227 446.246 442.949C452.389 466.977 458.743 491.823 471.433 512.555C483.706 532.607 500.318 544.754 520.806 548.658C549.179 554.065 583.633 542.756 612.968 518.402C655.243 483.307 684.583 432.226 712.957 382.828C717.931 374.169 723.073 365.216 728.164 356.57C741.382 334.12 759.284 305.029 780.559 279.112C802.305 252.622 824.403 233.159 848.118 219.609C862.633 211.315 878.016 205.728 893.839 203.002C908.455 200.483 923.925 200.327 939.82 202.534C967.085 206.321 996.459 217.02 1029.62 235.238C1094.92 271.115 1160.15 314.662 1223.49 364.671C1283.7 412.202 1342.75 465.988 1399 524.528L1398.87 524.691C1282.27 403.339 1158.01 306.02 1029.54 235.436C956.956 195.559 899.337 190.591 848.205 219.805C796.185 249.525 759.846 303.158 728.325 356.691C723.235 365.335 718.093 374.288 713.12 382.946C684.737 432.362 655.388 483.459 613.084 518.578C599.414 529.927 584.035 538.779 568.611 544.176C560.464 547.027 552.364 548.891 544.536 549.717C541.416 550.054 538.337 550.219 535.308 550.219Z" fill="#C1B6CC"/>
<path d="M540.192 537.907C527.45 537.907 515.647 535.149 505.098 529.704C493.336 523.632 483.186 514.224 474.928 501.743C474.197 500.637 473.472 499.494 472.773 498.342C460.2 477.67 453.56 453.129 447.141 429.395C445.842 424.599 444.5 419.638 443.14 414.824C435.034 386.159 425.275 360.895 413.3 337.592C411.825 334.723 410.298 331.848 408.757 329.048C380.605 277.841 341.27 234.318 295.005 203.185C241.335 167.102 183.882 149.571 133.229 153.825C103.621 156.337 64.3962 176.264 46.7091 209.49C36.1181 229.386 34.9196 251.482 43.2393 273.391L43.0615 273.479C38.7006 261.996 36.9087 250.488 37.738 239.28C38.4996 228.986 41.461 218.924 46.5429 209.375C54.5958 194.245 67.7036 180.797 84.4454 170.485C99.9192 160.954 117.237 154.959 133.212 153.605C159.734 151.378 188.009 155.058 217.247 164.541C243.732 173.132 269.926 186.07 295.102 202.996C341.393 234.147 380.75 277.696 408.919 328.931C410.46 331.734 411.989 334.611 413.464 337.482C425.447 360.801 435.212 386.078 443.321 414.758C444.684 419.572 446.026 424.533 447.325 429.332C453.742 453.05 460.376 477.573 472.931 498.217C473.629 499.364 474.354 500.507 475.083 501.611C492.147 527.411 515.595 537.907 540.252 537.907C540.388 537.907 540.521 537.907 540.656 537.907C540.502 537.905 540.347 537.907 540.192 537.907ZM545.452 537.754C568.376 536.415 592.03 526.398 612.323 511.496C656.096 479.22 687.556 429.369 717.981 381.16C719.234 379.173 720.487 377.19 721.739 375.208C724.49 370.855 727.751 365.703 731.08 360.508C746.012 337.214 764.084 310.11 784.897 285.715C807.041 259.756 829.165 240.493 852.529 226.823C866.885 218.432 882.058 212.521 897.624 209.255C912.046 206.228 927.288 205.373 942.921 206.711C969.927 209.026 998.964 217.801 1031.69 233.54C1063.6 248.862 1089.84 263.284 1114.24 278.929C1148.82 301.113 1181.76 326.674 1209.42 348.75C1273.72 400.223 1336.81 458.671 1396.95 522.472L1396.82 522.632C1336.69 458.84 1273.6 400.397 1209.31 348.93C1181.65 326.856 1148.72 301.3 1114.15 279.122C1089.75 263.482 1063.53 249.064 1031.62 233.747C960.322 199.459 903.441 197.321 852.618 227.02C799.87 257.879 762.305 312.172 731.236 360.64C727.906 365.835 724.646 370.985 721.896 375.34C720.643 377.32 719.391 379.305 718.138 381.292C687.703 429.516 656.231 479.385 612.427 511.685C601.566 519.66 590.008 525.995 578.074 530.513C566.965 534.713 556.014 537.142 545.452 537.754Z" fill="#C1B6CC"/>
<path d="M545.579 525.876C544.046 525.876 542.523 525.839 541.011 525.762C528.28 525.122 516.499 521.801 505.995 515.885C494.507 509.416 484.554 499.834 476.414 487.403C475.691 486.295 474.97 485.15 474.274 483.998C461.843 463.428 454.926 439.214 448.24 415.801C446.846 410.921 445.404 405.874 443.943 400.977C435.438 372.409 425.421 347.347 413.316 324.358C411.818 321.516 410.268 318.665 408.704 315.887C380.144 265.126 340.492 222.162 294.038 191.64C239.985 156.183 182.369 139.406 131.805 144.407C103.336 147.267 64.2253 166.057 45.6297 200.552C34.886 220.48 33.3222 242.636 41.1065 264.622L40.9267 264.704C36.8481 253.185 35.292 241.651 36.2971 230.423C37.2211 220.096 40.3062 210.008 45.4654 200.437C53.6034 185.342 66.6687 171.889 83.2501 161.529C98.5789 151.952 115.817 145.794 131.788 144.19C158.28 141.572 186.585 144.86 215.915 153.965C242.465 162.208 268.781 174.819 294.134 191.451C340.616 221.993 380.289 264.981 408.866 315.77C410.43 318.551 411.982 321.402 413.481 324.249C425.591 347.251 435.614 372.328 444.123 400.911C445.584 405.811 447.026 410.858 448.42 415.738C455.104 439.137 462.015 463.333 474.43 483.88C475.126 485.031 475.843 486.175 476.566 487.278C509.642 537.788 568.259 532.365 611.676 504.587C657.276 475.155 691.164 426.238 723.936 378.933L724.273 378.447C727.447 373.862 730.729 369.123 733.996 364.443C768.467 315.071 806.356 264.332 856.943 234.03C871.145 225.541 886.108 219.307 901.414 215.501C915.651 211.962 930.661 210.408 946.026 210.883C972.816 211.71 1001.52 218.564 1033.77 231.836C1067.67 245.736 1093.18 258.511 1116.48 273.264C1149.68 294.324 1181.85 320.938 1210.22 344.419C1273.41 396.98 1335.54 456.191 1394.9 520.403L1394.76 520.561C1335.41 456.356 1273.28 397.152 1210.11 344.595C1181.74 321.118 1149.58 294.509 1116.39 273.455C1093.09 258.707 1067.59 245.936 1033.71 232.041C963.791 203.271 907.652 203.963 857.032 234.221C806.478 264.504 768.604 315.221 734.146 364.575C730.88 369.255 727.597 373.996 724.423 378.579L724.087 379.065C707.755 402.639 690.868 427.014 672.632 448.788C652.138 473.256 632.23 491.569 611.769 504.774C590.363 518.468 567.045 525.876 545.579 525.876Z" fill="#C1B6CC"/>
<path d="M1392.72 518.488C1334.14 453.87 1272.97 393.905 1210.92 340.26C1208.29 338.005 1205.66 335.739 1203.02 333.466C1176.14 310.336 1148.35 286.42 1118.63 267.788C1089.8 249.763 1060.58 238.741 1035.8 230.337C967.397 206.997 911.999 210.52 861.456 241.423C809.572 273.239 769.369 326.064 737.067 368.511C735.128 371.059 733.193 373.611 731.254 376.166C729.823 378.052 728.391 379.938 726.959 381.822C708.566 406.015 691.836 427.645 673.35 447.383C652.232 469.93 631.878 486.443 611.119 497.867C591.665 508.574 570.883 514.239 551.553 514.241C548.031 514.241 544.561 514.054 541.152 513.674C528.703 512.287 517.178 508.39 506.898 502.09C495.681 495.216 485.925 485.451 477.897 473.067C477.18 471.957 476.465 470.809 475.773 469.655C463.489 449.192 456.304 425.32 449.357 402.234C447.86 397.262 446.312 392.118 444.746 387.126C435.835 358.648 425.559 333.787 413.335 311.119C411.814 308.298 410.238 305.474 408.653 302.719C379.683 252.405 339.716 209.999 293.074 180.086C238.639 145.256 180.863 129.237 130.388 134.979C95.8816 138.982 60.5963 162.252 44.5793 191.565C33.6675 211.536 31.7325 233.762 38.9794 255.841L38.7977 255.917C35.0032 244.357 33.681 232.788 34.8678 221.531C35.96 211.167 39.1727 201.046 44.415 191.449C52.6381 176.398 65.6608 162.945 82.0759 152.547C97.2578 142.93 114.408 136.612 130.368 134.762C156.83 131.75 185.164 134.649 214.584 143.376C241.198 151.272 267.64 163.558 293.171 179.893C339.842 209.823 379.83 252.253 408.817 302.598C410.404 305.355 411.98 308.182 413.501 311.002C425.733 333.683 436.013 358.558 444.93 387.049C446.496 392.043 448.044 397.185 449.54 402.159C456.484 425.232 463.665 449.089 475.934 469.528C476.626 470.679 477.339 471.825 478.054 472.933C512.584 526.204 571.272 519.55 611.036 497.667C658.478 471.557 694.782 423.807 726.814 381.676C728.246 379.79 729.677 377.904 731.109 376.021C733.046 373.466 734.983 370.914 736.922 368.366C755.361 344.138 773.57 320.593 793.588 298.897C816.608 273.945 838.78 255.082 861.367 241.229C875.42 232.636 890.171 226.079 905.212 221.742C919.269 217.686 934.048 215.435 949.141 215.049C975.759 214.367 1004.13 219.3 1035.86 230.126C1060.65 238.534 1089.88 249.56 1118.73 267.597C1148.46 286.235 1176.26 310.158 1203.14 333.292C1205.78 335.565 1208.41 337.831 1211.04 340.087C1273.1 393.736 1334.27 453.707 1392.86 518.332L1392.72 518.488Z" fill="#C1B6CC"/>
<path d="M1390.67 516.419C1331.75 450.152 1271.55 389.425 1211.73 335.927C1208.15 332.727 1204.48 329.427 1200.94 326.237C1175.58 303.394 1149.35 279.772 1120.87 262.123C1092.43 244.561 1062.96 235.337 1037.89 228.633C971.148 210.614 916.488 216.967 865.872 248.626C817.593 278.932 779.77 324.505 743.192 368.577L739.175 373.415C736.003 377.238 732.722 381.188 729.488 385.063C692.873 428.882 656.219 469.951 610.463 490.957C599.36 496.055 587.959 499.587 576.573 501.462C564.347 503.474 552.471 503.502 541.273 501.546C529.11 499.42 517.846 494.956 507.795 488.276C496.856 481.006 487.295 471.064 479.381 458.727C478.668 457.611 477.959 456.461 477.272 455.309C465.139 434.967 457.695 411.446 450.496 388.699C448.89 383.624 447.228 378.374 445.55 373.277C436.225 344.887 425.694 320.225 413.353 297.883C411.811 295.091 410.212 292.288 408.602 289.556C379.224 239.688 338.942 197.841 292.109 168.536C237.289 134.337 179.35 119.072 128.962 125.559C94.7713 130.055 59.6465 153.487 43.5484 182.545C32.4548 202.567 30.1371 224.878 36.8447 247.069L36.661 247.142C33.1507 235.531 32.0663 223.918 33.4368 212.628C34.701 202.219 38.047 192.059 43.3821 182.431C51.6941 167.431 64.6704 153.991 80.9116 143.563C95.9427 133.91 113 127.441 128.939 125.344C155.369 121.941 183.733 124.449 213.246 132.798C239.925 140.347 266.489 152.305 292.2 168.345C339.06 197.665 379.365 239.538 408.761 289.435C410.371 292.17 411.971 294.975 413.514 297.766C425.862 320.12 436.399 344.795 445.728 373.2C447.405 378.297 449.068 383.549 450.674 388.625C457.869 411.358 465.309 434.868 477.429 455.186C478.113 456.334 478.823 457.481 479.534 458.598C513.232 511.128 569.224 509.653 610.388 490.755C656.107 469.767 692.746 428.713 729.345 384.914C732.579 381.039 735.86 377.088 739.032 373.266L743.049 368.427C761.004 346.795 779.569 324.424 799.732 303.614C822.569 280.044 844.172 261.995 865.776 248.432C879.686 239.732 894.228 232.851 908.996 227.984C922.881 223.408 937.431 220.458 952.241 219.216C978.743 216.993 1006.77 220.005 1037.93 228.418C1063.01 235.126 1092.5 244.352 1120.96 261.929C1149.46 279.585 1175.69 303.213 1201.06 326.064C1204.6 329.253 1208.26 332.551 1211.84 335.753C1271.67 389.255 1331.88 449.987 1390.8 516.261L1390.67 516.419Z" fill="#C1B6CC"/>
<path d="M1388.62 514.347C1330.21 447.343 1270.97 385.855 1212.53 331.593C1208.14 327.515 1203.64 323.275 1199.29 319.175C1175.29 296.578 1150.48 273.211 1123.11 256.458C1094.8 239.198 1065.2 231.845 1039.98 226.93C975.089 214.09 921.17 223.274 870.291 255.829C825.889 284.36 789.435 324.794 754.178 363.895C750.469 368.01 746.632 372.264 742.893 376.385C738.504 381.226 735.15 384.903 732.02 388.306C715.259 406.521 695.303 427.493 674.36 444.938C652.167 463.423 631.053 476.217 609.809 484.051C598.638 488.17 587.286 490.769 576.065 491.771C564.016 492.848 552.35 492.057 541.394 489.417C529.523 486.557 518.523 481.525 508.693 474.462C498.035 466.804 488.673 456.683 480.867 444.387C480.164 443.272 479.458 442.12 478.774 440.964C466.801 420.758 459.107 397.6 451.665 375.205C449.939 370.011 448.155 364.64 446.355 359.424C436.611 331.113 425.823 306.654 413.372 284.644C411.807 281.876 410.185 279.1 408.551 276.389C378.766 226.967 338.166 185.678 291.144 156.983C235.943 123.412 177.842 108.906 127.543 116.134C98.923 120.337 61.5424 139.699 42.5486 173.476C31.2559 193.559 28.5458 215.972 34.7141 238.29L34.5304 238.356C31.3042 226.686 30.4614 215.022 32.0233 203.688C33.4653 193.227 36.9506 183.023 42.3862 173.357C50.7871 158.418 63.7151 145.001 79.7765 134.55C94.6569 124.87 111.611 118.253 127.52 115.916C153.919 112.122 182.313 114.239 211.915 122.21C238.659 129.411 265.346 141.044 291.235 156.79C338.284 185.5 378.907 226.813 408.71 276.264C410.343 278.974 411.967 281.755 413.533 284.525C425.989 306.546 436.783 331.019 446.533 359.343C448.335 364.561 450.119 369.931 451.845 375.126C459.281 397.51 466.973 420.655 478.933 440.839C479.617 441.993 480.32 443.142 481.024 444.255C509.059 488.425 557.181 503.224 609.749 483.838C657.356 466.283 696.19 426.937 731.887 388.144C735.016 384.741 738.368 381.063 742.758 376.223C746.497 372.101 750.334 367.848 754.043 363.732C771.4 344.483 789.346 324.578 808.488 305.94C830.134 284.861 850.321 268.405 870.198 255.634C883.975 246.819 898.304 239.616 912.792 234.226C926.514 229.119 940.834 225.472 955.353 223.382C981.789 219.579 1009.48 220.667 1040.01 226.708C1065.25 231.627 1094.87 238.983 1123.2 256.258C1150.59 273.022 1175.41 296.395 1199.41 318.999C1203.76 323.099 1208.26 327.339 1212.65 331.417C1271.09 385.686 1330.34 447.178 1388.76 514.186L1388.62 514.347Z" fill="#C1B6CC"/>
<path d="M1386.57 512.276C1328.67 444.532 1270.38 382.281 1213.34 327.258C1208.48 322.578 1203.5 317.665 1198.68 312.915C1175.71 290.287 1151.97 266.889 1125.35 250.792C1097.02 233.738 1067.35 228.297 1042.07 225.224C980.12 217.493 925.375 229.86 874.707 263.031C834.363 289.563 799.779 325.058 766.334 359.385C759.578 366.318 752.594 373.488 745.804 380.323C741.65 384.506 737.969 388.179 734.548 391.551C718.637 407.215 697.473 427.3 674.856 443.714C652.132 460.205 630.639 471.141 609.149 477.145C585.711 483.693 562.32 483.741 541.505 477.287C529.932 473.698 519.193 468.101 509.584 460.651C499.209 452.608 490.047 442.312 482.347 430.052C481.65 428.936 480.95 427.782 480.269 426.625C468.466 406.573 460.533 383.796 452.863 361.77C451.007 356.441 449.09 350.933 447.155 345.58C436.983 317.344 425.938 293.083 413.387 271.413C411.798 268.669 410.153 265.917 408.497 263.231C378.303 214.255 337.389 173.523 290.177 145.441C234.595 112.501 176.332 98.7508 126.12 106.719C92.091 112.237 58.1144 135.406 41.5755 164.369C30.0664 184.525 26.9561 207.054 32.5812 229.522L32.3956 229.581C29.4555 217.84 28.8563 206.115 30.6134 194.733C32.2371 184.212 35.8712 173.956 41.4132 164.248C49.903 149.38 62.7807 135.993 78.6546 125.534C93.3784 115.833 110.227 109.071 126.093 106.499C152.461 102.314 180.886 104.042 210.579 111.632C237.388 118.486 264.199 129.794 290.266 145.243C337.505 173.342 378.442 214.097 408.655 263.104C410.312 265.79 411.957 268.544 413.547 271.29C426.104 292.973 437.155 317.245 447.333 345.494C449.268 350.847 451.185 356.358 453.041 361.686C460.707 383.701 468.636 406.468 480.428 426.5C481.108 427.656 481.806 428.806 482.504 429.923C510.057 473.808 557.383 491.38 609.103 476.931C656.253 463.757 697.198 428.03 734.42 391.386C737.84 388.014 741.522 384.343 745.674 380.16C752.463 373.326 759.449 366.157 766.203 359.224C799.656 324.891 834.245 289.387 874.608 262.844C888.263 253.904 902.384 246.38 916.578 240.475C930.153 234.83 944.243 230.485 958.455 227.559C984.885 222.118 1012.24 221.285 1042.08 225.009C1067.39 228.084 1097.08 233.527 1125.44 250.6C1152.08 266.709 1175.83 290.115 1198.8 312.752C1203.62 317.502 1208.61 322.413 1213.46 327.093C1270.51 382.121 1328.8 444.376 1386.71 512.124L1386.57 512.276Z" fill="#C1B6CC"/>
<path d="M1384.52 510.206C1327.13 441.715 1269.81 378.706 1214.14 322.926C1209.03 317.8 1203.76 312.373 1198.68 307.124C1176.55 284.304 1153.67 260.706 1127.59 245.128C1099.14 228.219 1069.45 224.717 1044.15 223.522C984.548 220.497 930.565 235.777 879.124 270.236C843.048 294.517 810.888 325.248 779.786 354.965C769.093 365.185 758.991 374.837 748.717 384.261C744.538 388.096 740.731 391.543 737.078 394.794C713.505 415.754 693.893 430.909 675.355 442.484C652.099 457.008 630.229 466.086 608.494 470.237C600.062 471.846 591.661 472.648 583.413 472.648C568.792 472.648 554.644 470.133 541.619 465.152C518.048 456.137 498.606 439.504 483.832 415.712C483.136 414.585 482.442 413.431 481.769 412.279C470.146 392.401 461.991 370.027 454.104 348.388C452.105 342.906 450.041 337.239 447.959 331.728C437.352 303.558 426.048 279.499 413.406 258.174C411.794 255.455 410.126 252.727 408.446 250.065C377.845 201.535 336.613 161.361 289.212 133.888C233.249 101.581 174.826 88.5852 124.701 97.2944C90.5308 103.355 57.5343 126.084 40.6417 155.202C28.8986 175.44 25.3766 198.104 30.4527 220.743L30.2652 220.798C27.6151 208.976 27.2633 197.181 29.2214 185.739C31.0346 175.148 34.8214 164.834 40.4812 155.081C49.0599 140.293 61.8816 126.95 77.5622 116.491C92.1275 106.775 108.858 99.8817 124.672 97.0768C151.009 92.5002 179.465 93.8367 209.247 101.049C236.122 107.558 263.054 118.54 289.301 133.69C336.729 161.181 377.984 201.377 408.605 249.935C410.284 252.599 411.953 255.327 413.567 258.049C426.216 279.385 437.526 303.457 448.137 331.638C450.219 337.149 452.285 342.818 454.282 348.3C462.165 369.928 470.316 392.293 481.93 412.154C482.602 413.303 483.294 414.457 483.99 415.583C511.578 460.013 556.946 479.854 608.461 470.017C657.5 460.652 700.935 426.649 736.958 394.619C740.61 391.367 744.416 387.923 748.595 384.087C758.867 374.663 768.969 365.013 779.662 354.794C810.768 325.07 842.936 294.334 879.025 270.044C892.578 260.966 906.487 253.118 920.37 246.717C933.816 240.518 947.676 235.473 961.563 231.725C988.047 224.579 1015.07 221.822 1044.16 223.3C1069.48 224.495 1099.19 228.002 1127.67 244.93C1153.78 260.52 1176.67 284.128 1198.8 306.957C1203.89 312.206 1209.16 317.633 1214.27 322.757C1269.94 378.541 1327.27 441.557 1384.66 510.053L1384.52 510.206Z" fill="#C1B6CC"/>
<path d="M1382.47 508.136C1324.8 437.916 1270 375.916 1214.95 318.592C1209.69 313.122 1204.52 307.537 1199.05 301.624C1177.64 278.507 1155.51 254.606 1129.82 239.463C1101.02 222.561 1070.03 221.154 1046.24 221.818C989.351 223.199 936.129 241.393 883.54 277.441C851.987 299.175 822.855 325.274 794.681 350.516C779.874 363.782 765.889 376.31 751.627 388.2C747.394 391.732 743.46 394.95 739.605 398.039C715.711 417.154 695.453 430.884 675.849 441.251C652.053 453.834 629.806 461.055 607.836 463.328C596.547 464.495 585.335 464.275 574.512 462.675C563.054 460.98 552.024 457.729 541.73 453.014C518.915 442.561 499.935 425.189 485.315 401.376C484.625 400.246 483.937 399.09 483.268 397.938C471.84 378.264 463.48 356.317 455.394 335.094C453.237 329.431 451.006 323.575 448.762 317.882C437.711 289.773 426.152 265.914 413.423 244.941C411.785 242.246 410.094 239.542 408.395 236.904C377.385 188.821 335.839 149.205 288.248 122.341C244.323 97.6484 199.024 84.7648 157.486 84.7648C145.743 84.7648 134.309 85.7935 123.281 87.8752C89.5228 94.3731 56.7331 117.184 39.7419 145.989C27.7495 166.322 23.8003 189.14 28.3216 211.972L28.1322 212.021C25.772 200.106 25.6734 188.23 27.8384 176.722C29.8449 166.054 33.7959 155.672 39.5795 145.866C48.2472 131.171 61.0089 117.883 76.4885 107.435C91.1002 97.5715 107.27 90.7329 123.246 87.6598C149.553 82.6919 178.039 83.6393 207.912 90.4713C234.851 96.6306 261.909 107.285 288.333 122.141C335.951 149.02 377.523 188.658 408.551 236.77C410.253 239.408 411.946 242.114 413.583 244.811C426.318 265.795 437.883 289.666 448.94 317.787C451.184 323.48 453.417 329.336 455.574 335.001C463.656 356.216 472.012 378.154 483.431 397.813C484.1 398.962 484.788 400.118 485.476 401.246C512.814 445.775 557.405 468.32 607.82 463.106C658.834 457.828 704.987 425.461 739.497 397.854C743.352 394.766 747.283 391.548 751.517 388.017C765.777 376.132 779.76 363.602 794.565 350.338C822.742 325.094 851.879 298.988 883.443 277.248C910.519 258.689 937.088 245.163 964.672 235.895C991.274 226.958 1017.96 222.28 1046.24 221.594C1062.38 221.143 1075.55 221.926 1087.68 224.054C1103.34 226.801 1117.16 231.776 1129.92 239.263C1155.63 254.42 1177.77 278.334 1199.18 301.461C1204.66 307.374 1209.83 312.958 1215.08 318.427C1270.14 375.754 1324.94 437.758 1382.61 507.982L1382.47 508.136Z" fill="#C1B6CC"/>
<path d="M1380.42 506.064C1323.28 435.075 1269.41 372.336 1215.75 314.256C1210.44 308.509 1205.21 302.59 1199.67 296.323C1178.9 272.841 1157.43 248.558 1132.06 233.795C1103.02 216.972 1072.06 217.645 1048.33 220.109C994.645 225.492 942.185 246.602 887.958 284.639C861.24 303.471 835.801 325.022 811.2 345.866C791.752 362.341 773.384 377.904 754.541 392.129C750.283 395.347 746.108 398.425 742.135 401.273C718.195 418.428 696.675 431.096 676.345 440.004C652.003 450.669 629.379 456.037 607.18 456.411C595.885 456.6 584.718 455.439 573.996 452.958C562.755 450.355 551.938 446.286 541.844 440.861C519.812 429.019 501.291 410.908 486.799 387.029C486.119 385.901 485.435 384.743 484.768 383.585C473.554 364.15 465.012 342.667 456.751 321.892C454.414 316.014 451.996 309.934 449.566 304.023C438.062 275.967 426.246 252.31 413.442 231.696C411.781 229.025 410.067 226.345 408.344 223.731C376.927 176.094 335.064 137.037 287.283 110.781C230.561 79.7427 171.811 68.2594 121.86 78.4458C88.5385 85.3592 55.9672 108.229 38.8813 136.707C26.6182 157.148 22.2303 180.137 26.1891 203.191L25.9997 203.233C23.9352 191.216 24.0937 179.246 26.4733 167.66C28.6827 156.904 32.8019 146.447 38.7208 136.582C47.4735 121.992 60.1715 108.77 75.4423 98.3439C89.8858 88.4828 105.924 81.5277 121.825 78.2282C148.102 72.8712 176.618 73.4251 206.58 79.879C233.584 85.6955 260.764 96.0248 287.366 110.581C335.176 136.85 377.062 175.932 408.497 223.597C410.221 226.211 411.938 228.893 413.598 231.566C426.41 252.192 438.231 275.86 449.74 303.926C452.171 309.837 454.588 315.917 456.927 321.798C465.185 342.564 473.723 364.038 484.928 383.459C485.595 384.615 486.279 385.774 486.958 386.899C514.585 432.42 557.279 457.031 607.176 456.187C647.663 455.505 690.514 437.994 742.031 401.082C746.001 398.233 750.175 395.158 754.433 391.94C773.27 377.718 791.638 362.159 811.082 345.683C835.687 324.838 861.13 303.282 887.856 284.446C915.196 265.266 941.338 250.75 967.776 240.06C994.56 229.231 1020.91 222.63 1048.32 219.882C1072.07 217.414 1103.06 216.743 1132.15 233.593C1157.55 248.373 1179.03 272.668 1199.81 296.16C1205.35 302.427 1210.58 308.345 1215.89 314.088C1269.55 372.171 1323.42 434.915 1380.56 505.908L1380.42 506.064Z" fill="#C1B6CC"/>
<path d="M1378.37 503.994C1321.76 432.233 1268.83 368.752 1216.56 309.923C1211.26 303.951 1206.01 297.745 1200.47 291.175C1180.29 267.274 1159.43 242.56 1134.31 228.131C1104.99 211.369 1074.08 214.128 1050.43 218.404C999.911 227.361 949.691 250.697 892.377 291.843C870.882 307.345 849.876 324.35 829.562 340.795C804.889 360.768 781.584 379.635 757.455 396.066C753.107 399.03 748.804 401.874 744.666 404.516C720.296 420.066 698.111 431.268 676.842 438.76C664.929 442.956 653.168 445.996 641.887 447.797C629.854 449.716 617.957 450.289 606.525 449.502C583.331 447.904 561.607 440.91 541.96 428.714C520.741 415.542 502.683 396.695 488.288 372.691C487.611 371.554 486.933 370.394 486.27 369.242C475.296 350.093 466.602 329.12 458.195 308.84C455.649 302.7 453.018 296.352 450.372 290.175C438.405 262.165 426.331 238.708 413.461 218.461C411.777 215.812 410.038 213.156 408.294 210.569C376.469 163.376 334.291 124.877 286.321 99.2347C229.22 68.8314 170.309 58.1042 120.441 69.0271C67.0454 80.9039 15.0145 132.221 24.061 194.419L23.8696 194.454C21.606 178.895 22.9321 163.567 27.8091 148.892C32.2627 135.49 39.5715 122.876 49.5323 111.406C58.7934 100.74 69.9043 91.5322 82.554 84.0364C94.5851 76.9076 107.674 71.6407 120.402 68.8094C146.649 63.0611 175.196 63.226 205.248 69.3018C232.318 74.7731 259.622 84.7772 286.402 99.0369C334.399 124.696 376.602 163.218 408.447 210.437C410.192 213.027 411.932 215.682 413.618 218.333C426.493 238.59 438.573 262.06 450.546 290.08C453.192 296.257 455.823 302.606 458.369 308.747C466.774 329.021 475.464 349.986 486.432 369.123C487.093 370.275 487.77 371.436 488.447 372.57C516.114 418.701 558.052 445.944 606.536 449.285C647.582 452.109 692.733 437.406 744.571 404.327C748.708 401.685 753.009 398.843 757.356 395.88C781.48 379.452 804.781 360.587 829.45 340.617C849.766 324.17 870.774 307.162 892.273 291.658C949.61 250.495 999.853 227.15 1050.4 218.186C1066.29 215.313 1079.45 214.394 1091.81 215.297C1107.61 216.451 1121.54 220.584 1134.39 227.933C1159.54 242.377 1180.42 267.107 1200.61 291.021C1206.15 297.589 1211.39 303.795 1216.69 309.765C1268.97 368.598 1321.9 432.082 1378.51 503.846L1378.37 503.994Z" fill="#C1B6CC"/>
<path d="M1376.32 501.923C1320.25 429.38 1268.25 365.16 1217.37 305.589C1212.1 299.425 1206.9 292.969 1201.39 286.13C1181.76 261.772 1161.46 236.583 1136.54 222.464C1106.59 205.562 1074.24 211.077 1052.51 216.696C993.549 231.758 940.706 266.775 896.794 299.047C881.011 310.693 865.269 323.029 850.042 334.959C819.499 358.891 790.65 381.495 760.368 400.003C755.914 402.727 751.484 405.336 747.196 407.761C722.351 421.783 699.501 431.517 677.341 437.513C652.219 444.312 628.175 446.023 605.87 442.594C582.956 439.07 561.492 430.312 542.076 416.562C521.712 402.142 504.116 382.559 489.773 358.354C489.104 357.218 488.429 356.055 487.77 354.899C477.069 336.102 468.266 315.705 459.751 295.978C456.962 289.513 454.076 282.831 451.176 276.326C438.563 247.965 426.584 225.374 413.48 205.225C411.774 202.601 410.013 199.972 408.244 197.406C376.007 150.662 333.512 112.721 285.353 87.6854C227.872 57.9196 168.799 47.9463 119.017 59.6056C65.4296 72.3222 14.4618 122.942 21.9271 185.646L21.7357 185.675C19.8839 170.118 21.4863 154.805 26.4967 140.163C31.0896 126.747 38.4408 114.121 48.3494 102.638C57.5892 91.9279 68.6422 82.6515 81.203 75.0611C93.1625 67.8335 106.226 62.4149 118.978 59.388C145.195 53.2484 173.771 53.0242 203.913 58.7197C231.048 63.8459 258.476 73.5246 285.434 87.4854C333.622 112.534 376.14 150.497 408.393 197.27C410.162 199.838 411.924 202.469 413.633 205.093C426.745 225.251 438.728 247.855 451.346 276.227C454.246 282.732 457.132 289.416 459.921 295.881C468.434 315.601 477.235 335.992 487.929 354.78C488.588 355.936 489.26 357.097 489.929 358.233C517.811 405.284 558.994 435.166 605.893 442.376C647.955 448.843 694.147 437.454 747.109 407.563C751.395 405.141 755.825 402.534 760.275 399.81C790.55 381.306 819.394 358.706 849.932 334.776C865.158 322.847 880.903 310.508 896.688 298.86C926.217 277.161 950.781 261.13 973.989 248.409C1001.31 233.435 1026.98 222.991 1052.47 216.48C1068.01 212.462 1081.55 210.642 1093.87 210.919C1109.74 211.275 1123.72 214.985 1136.63 222.266C1161.58 236.402 1181.89 261.607 1201.53 285.981C1207.04 292.817 1212.24 299.273 1217.5 305.432C1268.39 365.006 1320.39 429.231 1376.47 501.776L1376.32 501.923Z" fill="#C1B6CC"/>
<path d="M1374.27 499.849C1318.74 426.522 1267.68 361.56 1218.17 301.251C1212.98 294.926 1207.84 288.246 1202.4 281.172C1183.29 256.324 1163.53 230.629 1138.78 216.796C1108.5 199.933 1076.24 207.687 1054.61 214.987C1001.18 232.86 953.531 266.893 901.215 306.247C891.78 313.372 882.237 320.725 873.007 327.838C837.509 355.192 800.805 383.477 763.283 403.937C758.725 406.426 754.163 408.802 749.727 411C724.714 423.38 700.528 431.879 677.84 436.26C652.139 441.223 627.705 441.028 605.213 435.682C582.62 430.311 561.416 419.789 542.191 404.406C522.735 388.838 505.597 368.52 491.254 344.017C490.591 342.878 489.922 341.713 489.267 340.557C478.888 322.2 470.029 302.466 461.462 283.384C458.375 276.508 455.184 269.399 451.977 262.481C438.871 234.148 426.643 211.751 413.494 191.994C411.768 189.4 409.982 186.793 408.188 184.247C375.549 137.942 332.741 100.559 284.388 76.1353C226.531 47.0069 167.298 37.7899 117.596 50.1833C65.7102 63.2626 13.801 112.107 19.7953 176.87L19.604 176.892C18.1639 161.335 20.0428 146.04 25.1865 131.431C29.9166 118 37.3123 105.363 47.1668 93.8659C65.3488 72.6577 91.0037 56.657 117.554 49.9657C143.74 43.4371 172.347 42.8216 202.579 48.1368C229.781 52.9201 257.33 62.2712 284.466 75.933C332.845 100.37 375.679 137.777 408.339 184.104C410.135 186.652 411.921 189.259 413.649 191.855C426.803 211.624 439.037 234.03 452.147 262.373C455.354 269.293 458.547 276.402 461.634 283.278C470.199 302.356 479.056 322.085 489.429 340.434C490.082 341.59 490.751 342.753 491.414 343.891C520.11 392.916 559.474 424.581 605.25 435.464C647.637 445.54 696.217 437.242 749.646 410.798C754.08 408.6 758.638 406.226 763.194 403.74C800.702 383.285 837.403 355.005 872.893 327.655C882.123 320.542 891.666 313.189 901.103 306.065C924.004 288.837 950.65 269.078 977.096 252.58C1004.76 235.324 1030.09 222.96 1054.55 214.778C1069.94 209.584 1083.48 206.889 1095.94 206.541C1111.65 206.102 1126.09 209.487 1138.86 216.6C1149.95 222.797 1161.11 232.045 1172.97 244.873C1183.45 256.201 1193.16 268.823 1202.55 281.027C1207.98 288.099 1213.12 294.779 1218.31 301.101C1267.82 361.413 1318.88 426.377 1374.42 499.706L1374.27 499.849Z" fill="#C1B6CC"/>
<path d="M1372.22 497.779C1317.24 423.66 1267.11 357.958 1218.98 296.918C1213.88 290.456 1208.83 283.573 1203.49 276.288C1184.87 250.923 1165.63 224.694 1141.02 211.134C1118.03 198.501 1090.44 199.204 1056.69 213.283C1009.51 232.858 967.323 265.601 922.663 300.268C917.102 304.586 911.353 309.048 905.631 313.455C903.391 315.185 901.148 316.92 898.908 318.652C856.355 351.557 812.353 385.583 766.195 407.877C761.529 410.132 756.839 412.275 752.256 414.245C726.694 425.221 701.826 432.206 678.343 435.007C652.048 438.142 627.223 436.045 604.56 428.773C582.319 421.635 561.376 409.347 542.315 392.25C523.839 375.678 507.161 354.628 492.743 329.68C492.086 328.539 491.423 327.372 490.771 326.214C480.787 308.432 471.957 289.495 463.415 271.182C459.957 263.765 456.379 256.096 452.785 248.63C439.173 220.318 426.697 198.114 413.518 178.756C411.767 176.184 409.96 173.604 408.142 171.082C375.09 125.226 331.964 88.3993 283.422 64.5862C225.19 36.0975 165.793 27.6345 116.174 40.7621C65.241 54.3492 13.4053 103.593 17.6637 168.097L17.4704 168.115C16.444 152.556 18.5974 137.278 23.8745 122.707C28.7438 109.26 36.182 96.6074 45.9843 85.102C64.0889 63.8498 89.655 47.6117 116.13 40.5489C142.287 33.6289 170.923 32.6222 201.244 37.5593C228.511 41.9953 256.186 51.0211 283.5 64.384C332.069 88.2124 375.221 125.059 408.287 170.939C410.104 173.461 411.916 176.046 413.667 178.618C426.852 197.986 439.336 220.197 452.952 248.521C456.547 255.986 460.123 263.657 463.583 271.074C472.121 289.383 480.951 308.316 490.932 326.091C491.583 327.249 492.244 328.414 492.901 329.555C522.219 380.281 560.847 414.513 604.61 428.555C647.811 442.417 697.463 437.53 752.186 414.034C756.766 412.064 761.453 409.923 766.118 407.67C812.261 385.385 856.254 351.366 898.798 318.465C901.04 316.731 903.28 314.998 905.521 313.268C911.243 308.861 916.991 304.399 922.553 300.084C967.223 265.409 1009.42 232.658 1056.63 213.075C1071.87 206.713 1085.41 203.145 1098.01 202.163C1113.78 200.934 1128.28 203.886 1141.11 210.934C1152.13 217.007 1163.14 226.297 1174.79 239.334C1185.06 250.837 1194.5 263.703 1203.63 276.145C1208.98 283.428 1214.03 290.308 1219.12 296.769C1267.26 357.811 1317.38 423.515 1372.37 497.636L1372.22 497.779Z" fill="#C1B6CC"/>
<path d="M1370.18 495.708C1319.99 426.641 1269.39 358.299 1219.78 292.584C1214.73 285.932 1209.73 278.786 1204.43 271.222C1187.2 246.615 1167.67 218.726 1143.26 205.469C1120 192.858 1092.37 194.856 1058.78 211.576C1018.85 231.39 983.514 260.525 946.101 291.37C934.385 301.029 922.269 311.02 910.048 320.657C888.717 337.515 865.643 355.353 841.455 371.6C815.551 389.001 791.885 402.153 769.104 411.812C764.318 413.841 759.501 415.751 754.783 417.485C728.679 427.076 703.134 432.534 678.858 433.708C651.983 435.005 626.765 431.022 603.901 421.86C561.68 404.731 524.779 368.894 494.224 315.342C493.572 314.199 492.915 313.029 492.268 311.871C482.79 294.874 474.115 276.943 465.725 259.602C461.776 251.44 457.694 242.999 453.586 234.784C439.456 206.478 426.729 184.47 413.534 165.523C411.758 162.973 409.927 160.417 408.089 157.922C374.634 112.507 331.191 76.2412 282.46 53.037C223.851 25.1858 164.293 17.4811 114.756 31.3408C63.5133 45.7588 12.9765 94.35 15.5339 159.324L15.3406 159.333C14.7279 143.77 17.1596 128.51 22.5662 113.976C27.5766 100.512 35.0574 87.8455 44.8036 76.3313C53.9854 65.4832 64.8683 55.998 77.1488 48.1372C89.0716 40.5073 101.708 34.7832 114.707 31.1254C140.836 23.8164 169.502 22.4183 199.913 26.9752C227.245 31.0704 255.042 39.7687 282.534 52.8326C331.294 76.05 374.762 112.338 408.236 157.775C410.074 160.272 411.908 162.83 413.685 165.38C426.885 184.338 439.618 206.355 453.754 234.67C457.862 242.887 461.944 251.328 465.894 259.492C474.283 276.831 482.956 294.76 492.43 311.75C493.076 312.91 493.735 314.078 494.384 315.221C524.916 368.731 561.785 404.54 603.965 421.651C647.413 439.061 699.545 437.548 754.723 417.274C759.437 415.54 764.254 413.632 769.037 411.605C819.97 390.012 866.571 354.747 909.936 320.474C922.157 310.837 934.271 300.849 945.987 291.19C983.408 260.338 1018.75 231.197 1058.7 211.373C1092.34 194.627 1120.03 192.629 1143.34 205.269C1154.27 211.206 1165.12 220.513 1176.52 233.718C1186.57 245.362 1195.72 258.439 1204.58 271.083C1209.88 278.647 1214.88 285.791 1219.93 292.439C1269.54 358.156 1320.14 426.498 1370.32 495.568L1370.18 495.708Z" fill="#C1B6CC"/>
<path d="M1368.13 493.637C1318.71 424.187 1269.07 355.084 1220.59 288.248C1215.7 281.524 1210.84 274.252 1205.7 266.554C1188.89 241.374 1169.84 212.832 1145.5 199.799C1121.96 187.21 1094.28 190.503 1060.87 209.863C1025.87 230.117 993.712 258.715 962.614 286.375C947.02 300.244 930.895 314.585 914.464 327.855C888.531 348.822 866.711 364.816 845.794 378.192C820.001 394.685 795.868 406.969 772.016 415.744C767.12 417.546 762.171 419.221 757.31 420.723C731.98 428.542 707.106 432.498 683.31 432.501C681.988 432.501 680.674 432.487 679.359 432.463C651.848 431.953 626.24 426.058 603.245 414.944C592.145 409.549 581.276 402.702 570.94 394.59C561.225 386.967 551.678 377.987 542.564 367.902C526.166 349.758 510.837 327.873 495.705 301C495.056 299.844 494.408 298.685 493.765 297.522C484.985 281.667 476.679 265.092 468.647 249.063C464.01 239.811 459.216 230.242 454.387 220.928C439.52 192.233 426.927 171.06 413.548 152.281C411.749 149.755 409.895 147.223 408.033 144.752C374.173 99.7877 330.415 64.0802 281.494 41.4849C222.51 14.2734 162.79 7.32488 113.334 21.9165C63.0521 36.7939 12.5811 85.7544 13.4026 150.546L13.2093 150.549C12.8266 120.369 23.3441 91.672 43.6234 67.5599C52.7897 56.6613 63.6146 47.1079 75.8003 39.1592C87.6574 31.4259 100.268 25.5524 113.285 21.7011C139.383 14.0008 168.081 12.2137 198.58 16.3903C225.978 20.1426 253.899 28.5155 281.566 41.2783C330.518 63.889 374.3 99.6185 408.182 144.609C410.044 147.082 411.901 149.617 413.701 152.142C427.085 170.932 439.685 192.112 454.555 220.818C459.384 230.134 464.18 239.703 468.815 248.955C476.847 264.982 485.151 281.555 493.929 297.406C494.573 298.569 495.218 299.727 495.868 300.881C528.021 357.986 563.169 395.23 603.32 414.741C658.931 441.621 717.728 432.716 757.26 420.512C762.117 419.01 767.062 417.337 771.956 415.535C826.813 395.351 876.871 357.979 914.352 327.677C930.781 314.411 946.904 300.07 962.496 286.204C993.602 258.54 1025.77 229.932 1060.78 209.669C1075.73 201.006 1089.26 195.686 1102.14 193.409C1118.03 190.6 1132.64 192.684 1145.58 199.604C1156.48 205.44 1167.23 214.822 1178.44 228.283C1188.31 240.145 1197.23 253.503 1205.86 266.424C1211 274.12 1215.85 281.39 1220.74 288.11C1269.22 354.946 1318.85 424.049 1368.28 493.498L1368.13 493.637Z" fill="#C1B6CC"/>
<path d="M1366.08 491.567L1221.4 283.916C1216.67 277.135 1211.98 269.756 1207.01 261.945C1190.62 236.169 1172.03 206.955 1147.74 194.138C1124.25 181.744 1095.72 186.461 1062.96 208.16C1031.46 229.019 1002.74 256.758 974.956 283.584C956.847 301.071 938.122 319.151 918.883 335.064C861.057 382.893 810.52 411.142 759.842 423.968C738.819 429.288 718.079 431.965 697.966 431.965C691.87 431.965 685.835 431.719 679.864 431.227C651.704 428.905 625.705 421.102 602.591 408.036C581.17 395.923 561.573 378.826 542.687 355.762C527.606 337.346 513.149 315.39 497.192 286.666C488.77 271.508 480.614 255.757 472.728 240.526C454.878 206.058 436.422 170.417 413.572 139.048C378.522 90.9364 332.516 53.2065 280.528 29.9364C221.171 3.36675 161.288 -2.82777 111.913 12.4959C64.1094 27.3315 12.2254 74.1136 11.2704 141.774L11.0771 141.77C11.5043 111.527 22.3505 82.8339 42.4423 58.7922C60.6087 37.0542 85.2624 20.5369 111.863 12.2827C137.931 4.19328 166.66 2.01486 197.246 5.81115C224.71 9.21836 252.754 17.2682 280.599 29.732C306.324 41.2461 330.755 56.4027 353.217 74.7819C375.866 93.3149 396.223 114.888 413.718 138.903C436.578 170.283 455.041 205.933 472.894 240.41C480.781 255.639 488.936 271.387 497.356 286.543C520.637 328.454 553.649 380.114 602.678 407.833C658.906 439.621 719.156 434.034 759.8 423.748C810.452 410.931 860.966 382.692 918.769 334.882C938 318.975 956.724 300.895 974.83 283.413C1002.62 256.582 1031.35 228.836 1062.86 207.966C1095.68 186.231 1124.27 181.509 1147.82 193.935C1158.7 199.675 1169.35 209.138 1180.38 222.87C1190.09 234.958 1198.77 248.611 1207.17 261.813C1212.13 269.624 1216.83 276.999 1221.55 283.778L1366.23 491.429L1366.08 491.567Z" fill="#C1B6CC"/>
<path d="M1364.91 475.604C1328.07 417.787 1296.46 370.871 1265.43 327.96C1250.37 307.114 1234.99 286.596 1219.72 266.975C1215.1 261.04 1210.52 254.727 1205.67 248.042C1193.5 231.241 1180.9 213.869 1166.41 200.976C1158.63 194.041 1151.14 189.075 1143.51 185.795C1120.1 175.629 1092.63 182.351 1061.86 205.777C1045.94 217.882 1031.44 231.659 1019.36 243.538C1006.57 256.114 993.953 269.982 981.75 283.393C964.212 302.671 946.076 322.605 926.58 339.724C914.717 350.172 902.691 359.508 890.836 367.474C867.118 383.411 841.66 396.543 815.17 406.506C798.804 412.592 782.357 417.193 766.292 420.178C752.446 422.742 738.575 424.221 725.061 424.575C704.836 425.107 685.131 423.078 666.492 418.539C646.675 413.711 627.921 406.007 610.752 395.635C595.443 386.388 580.982 374.744 566.544 360.036C539.64 332.65 518.182 300.985 502.494 276.458C494.787 264.352 487.261 252.007 479.984 240.069C459.028 205.687 439.234 173.213 414.464 144.287C394.262 120.85 371.213 100.624 345.95 84.1682C326.537 71.522 305.423 61.1794 283.195 53.4264C277.9 51.5821 272.505 49.8631 267.164 48.3222C244.169 41.699 218.282 37.3861 190.225 35.5023C161.937 33.559 137.463 35.2407 115.409 40.6482C102.941 43.6818 90.8618 48.4409 79.5015 54.7915C39.3953 77.2131 13.6417 114.853 10.6108 155.48L10.3691 155.456C11.1771 144.625 13.549 133.957 17.4169 123.745C21.0916 114.044 26.1387 104.688 32.4171 95.9374C44.28 79.4069 60.5251 65.0922 79.3952 54.5431C90.7729 48.1815 102.872 43.4158 115.359 40.3779C137.436 34.9659 161.929 33.2821 190.24 35.2275C218.313 37.1113 244.214 41.4286 267.224 48.0562C272.571 49.5993 277.968 51.3183 283.266 53.1648C305.512 60.9222 326.643 71.2736 346.072 83.9308C371.352 100.398 394.421 120.641 414.632 144.093C439.417 173.037 459.215 205.52 480.179 239.911C487.455 251.849 494.98 264.192 502.685 276.295C518.366 300.812 539.814 332.461 566.703 359.829C581.125 374.522 595.57 386.155 610.862 395.392C644.464 415.687 682.883 425.415 725.053 424.3C738.555 423.946 752.417 422.467 766.252 419.906C782.305 416.921 798.74 412.324 815.093 406.242C841.568 396.286 867.01 383.163 890.713 367.235C902.56 359.275 914.578 349.944 926.431 339.504C945.916 322.394 964.047 302.465 981.58 283.193C993.785 269.78 1006.4 255.907 1019.2 243.327C1031.29 231.441 1045.79 217.66 1061.73 205.546C1075.42 195.116 1088.69 187.91 1101.15 184.127C1116.46 179.48 1130.74 179.955 1143.6 185.538C1151.25 188.829 1158.76 193.808 1166.56 200.759C1181.07 213.671 1193.67 231.054 1205.86 247.866C1210.71 254.548 1215.28 260.862 1219.9 266.792C1235.18 286.416 1250.56 306.936 1265.62 327.786C1296.65 370.701 1328.26 417.622 1365.11 475.443L1364.91 475.604Z" fill="#C1B6CC"/>
<path d="M1363.74 459.636C1329.59 400.841 1297.53 351.641 1265.73 309.227C1250.23 288.509 1234.18 268.593 1218.04 250.033C1213.76 245.11 1209.53 239.992 1205.05 234.576C1191.65 218.355 1177.78 201.583 1162.25 189.979C1154.41 184.094 1146.9 179.997 1139.28 177.451C1110.12 167.7 1080.49 186.174 1060.76 203.388C1046.79 215.548 1034.03 229.298 1021.1 243.492C1009.79 255.916 999.143 269.281 987.873 283.429C971.147 304.43 953.85 326.146 934.277 344.38C922.661 355.259 910.539 364.665 898.247 372.337C875.35 386.63 850.277 397.728 821.595 406.271C805.543 411.049 789.105 414.454 772.736 416.387C758.925 417.998 745.139 418.574 731.758 418.092C711.852 417.385 692.394 414.202 673.922 408.634C654.523 402.784 636.012 394.238 618.907 383.231C603.92 373.59 589.45 361.627 574.668 346.662C547.822 319.521 524.825 289.432 507.791 266.25C501.486 257.668 495.281 249.033 489.279 240.68C465.377 207.417 442.802 175.996 415.357 149.525C394.845 129.741 371.817 113.013 346.916 99.8063C328.075 89.8133 308.105 82.3262 285.868 76.9165C280.736 75.6701 275.515 74.5468 270.351 73.5774C247.673 69.3415 223.47 67.739 194.187 66.0815C173.078 64.8264 145.446 63.9998 118.9 68.7963C106.327 71.0253 94.1745 74.8963 82.7755 80.2973C42.6422 99.3183 15.4176 132.546 9.94722 169.186L9.66113 169.131C11.1109 159.415 14.0491 149.886 18.3887 140.805C22.5253 132.153 27.961 123.857 34.5429 116.141C47.0514 101.484 63.6908 88.9824 82.6634 79.9917C94.0836 74.5798 106.26 70.7022 118.853 68.4688C145.425 63.6657 173.078 64.4944 194.2 65.7496C223.493 67.4071 247.704 69.0095 270.398 73.2477C275.565 74.2193 280.79 75.3426 285.928 76.5889C308.186 82.0053 328.176 89.499 347.038 99.503C371.964 112.723 395.012 129.464 415.544 149.268C443.008 175.759 465.594 207.188 489.503 240.465C495.503 248.816 501.708 257.45 508.014 266.03C525.044 289.203 548.031 319.281 574.861 346.409C589.626 361.359 604.081 373.309 619.05 382.939C652.684 404.58 690.61 416.294 731.768 417.758C745.137 418.238 758.909 417.664 772.707 416.053C789.061 414.123 805.485 410.722 821.522 405.945C850.181 397.412 875.232 386.322 898.11 372.042C910.386 364.379 922.493 354.987 934.095 344.119C953.651 325.9 970.94 304.193 987.661 283.202C998.934 269.048 1009.58 255.681 1020.9 243.25C1033.83 229.047 1046.6 215.293 1060.59 203.12C1073.37 191.959 1085.99 183.931 1098.07 179.254C1112.73 173.582 1126.62 172.868 1139.37 177.128C1147.01 179.685 1154.55 183.795 1162.42 189.697C1177.97 201.324 1191.85 218.111 1205.27 234.345C1209.74 239.759 1213.97 244.874 1218.25 249.796C1234.4 268.362 1250.45 288.284 1265.96 309.009C1297.76 351.434 1329.82 400.643 1363.99 459.452L1363.74 459.636Z" fill="#C1B6CC"/>
<path d="M1362.58 443.668C1330.61 383.097 1299.03 332.993 1266.04 290.495C1250.08 269.905 1233.37 250.593 1216.37 233.094C1212.73 229.352 1208.99 225.382 1205.37 221.544C1190.43 205.686 1174.97 189.29 1158.1 178.983C1150.18 174.111 1142.65 170.88 1135.06 169.106C1105.96 162.294 1078 182.689 1059.67 200.995C1047.24 213.354 1035.89 227.361 1024.91 240.908L1022.85 243.445C1012.88 255.735 1003.52 269.214 993.617 283.487C977.846 306.215 961.539 329.713 941.975 349.035C930.591 360.361 918.373 369.837 905.658 377.201C883.488 390.041 858.815 399.203 828.016 406.035C812.09 409.567 795.659 411.774 779.178 412.592C765.402 413.249 751.701 412.92 738.452 411.607C698.342 407.653 660.864 393.931 627.06 370.826C612.446 360.838 597.966 348.561 582.794 333.288C557.118 307.496 534.281 280.986 513.093 256.043C510.252 252.699 507.441 249.378 504.652 246.083C475.712 211.903 448.38 179.618 416.257 154.77C395.286 138.547 372.281 125.318 347.884 115.448C329.973 108.203 310.561 103.283 288.544 100.408C283.582 99.7639 278.535 99.2342 273.542 98.8341C260.982 97.8449 247.659 97.6844 233.554 97.5152C222.225 97.3789 210.511 97.2382 198.149 96.6645C174.274 95.4621 147.216 94.1014 122.388 96.9502C109.578 98.4208 97.3519 101.402 86.0476 105.811C45.9298 121.462 17.2322 150.283 9.28175 182.906L8.95508 182.803C11.0505 174.202 14.5531 165.811 19.3644 157.865C23.9649 150.265 29.7872 143.025 36.6687 136.344C49.8306 123.568 66.8682 112.885 85.9355 105.446C97.2649 101.026 109.516 98.0384 122.352 96.5656C147.204 93.7145 174.276 95.0774 198.161 96.2798C210.514 96.8513 222.229 96.9942 233.554 97.1305C247.665 97.2998 260.991 97.4602 273.564 98.4516C278.56 98.8539 283.613 99.3837 288.579 100.028C310.623 102.905 330.058 107.831 347.994 115.088C372.42 124.969 395.45 138.213 416.444 154.453C448.596 179.323 475.943 211.624 504.893 245.819C507.683 249.114 510.495 252.433 513.335 255.779C534.519 280.718 557.348 307.221 583.016 333.004C598.173 348.26 612.638 360.525 627.234 370.501C660.994 393.578 698.423 407.279 738.481 411.229C751.714 412.539 765.402 412.869 779.163 412.212C795.626 411.394 812.042 409.189 827.95 405.661C858.718 398.836 883.362 389.685 905.503 376.862C918.191 369.514 930.387 360.055 941.751 348.75C961.29 329.452 977.587 305.966 993.349 283.252C1003.26 268.973 1012.62 255.487 1022.6 243.188L1024.65 240.651C1035.64 227.097 1047.01 213.081 1059.44 200.71C1077.83 182.344 1105.89 161.889 1135.13 168.732C1142.75 170.515 1150.31 173.758 1158.26 178.649C1175.17 188.978 1190.64 205.392 1205.6 221.267C1209.22 225.105 1212.96 229.075 1216.59 232.814C1233.61 250.323 1250.33 269.645 1266.29 290.247C1299.29 332.762 1330.88 382.883 1362.86 443.475L1362.58 443.668Z" fill="#C1B6CC"/>
<path d="M1361.41 427.698C1332.06 366.212 1300.07 313.747 1266.34 271.766C1249.94 251.305 1232.56 232.597 1214.69 216.158C1212.11 213.784 1209.47 211.32 1206.91 208.937C1190.03 193.196 1172.56 176.916 1153.96 167.991C1145.97 164.12 1138.42 161.757 1130.85 160.764C1101.82 156.957 1075.53 179.24 1058.57 198.604C1048.05 210.566 1038.55 223.87 1029.36 236.736C1027.77 238.963 1026.18 241.185 1024.59 243.399C1015.85 255.559 1007.68 269.144 999.032 283.524C984.326 307.973 969.119 333.252 949.673 353.695C938.253 365.7 926.279 374.981 913.065 382.072C885.427 396.903 857.806 402.392 834.434 405.808C818.626 408.116 802.203 409.127 785.618 408.806C771.884 408.51 758.266 407.272 745.144 405.131C706.239 398.798 669.252 383.085 635.214 358.428C621.051 348.171 606.563 335.576 590.919 319.922C575.116 304.148 560.391 288.969 546.148 274.29C536.47 264.312 527.326 254.889 518.398 245.847C484.647 211.67 453.733 181.62 417.162 160.021C395.74 147.37 372.759 137.637 348.855 131.092C331.723 126.402 313.409 124.118 291.224 123.9C286.438 123.86 281.563 123.924 276.736 124.091C269.404 124.362 261.819 124.927 253.791 125.527C238.385 126.676 220.92 127.98 202.108 127.25C194.944 126.971 187.636 126.577 180.567 126.195C162.385 125.212 143.584 124.197 125.872 125.105C112.865 125.773 100.563 127.866 89.3129 131.326C49.2628 143.646 19.0942 168.062 8.60956 196.636L8.25195 196.467C10.9968 188.984 15.0639 181.735 20.3391 174.918C25.4055 168.372 31.6144 162.188 38.7897 156.541C52.6166 145.66 70.0504 136.795 89.2086 130.901C100.486 127.432 112.815 125.333 125.851 124.665C143.582 123.755 162.391 124.773 180.582 125.755C187.649 126.138 194.958 126.531 202.12 126.81C220.915 127.54 238.366 126.239 253.764 125.089C261.796 124.489 269.383 123.924 276.723 123.654C281.555 123.487 286.434 123.423 291.226 123.463C313.442 123.678 331.783 125.968 348.944 130.666C372.877 137.219 395.889 146.963 417.338 159.632C433.857 169.387 450.597 181.748 468.514 197.417C484.555 211.443 500.158 226.791 518.653 245.52C527.582 254.563 536.725 263.987 546.405 273.964C560.646 288.642 575.371 303.82 591.17 319.593C606.798 335.23 621.271 347.813 635.417 358.059C669.409 382.683 706.343 398.374 745.195 404.698C758.3 406.837 771.901 408.072 785.62 408.369C802.186 408.69 818.591 407.681 834.38 405.373C857.723 401.963 885.307 396.481 912.897 381.676C926.074 374.605 938.017 365.348 949.406 353.374C968.819 332.966 984.015 307.707 998.709 283.278C1007.37 268.889 1015.54 255.297 1024.29 243.124C1025.88 240.91 1027.47 238.688 1029.06 236.463C1038.25 223.588 1047.76 210.276 1058.29 198.298C1069.32 185.7 1080.64 176.008 1091.92 169.493C1105.29 161.775 1118.4 158.693 1130.89 160.333C1138.49 161.331 1146.08 163.705 1154.1 167.591C1172.75 176.54 1190.24 192.84 1207.15 208.601C1209.71 210.984 1212.35 213.448 1214.93 215.82C1232.81 232.271 1250.2 250.998 1266.61 271.474C1284.53 293.766 1302.07 319.164 1318.75 346.962C1333.49 371.532 1347.96 398.627 1361.74 427.491L1361.41 427.698Z" fill="#C1B6CC"/>
<path d="M1360.24 411.723C1333.08 348.475 1301.59 295.085 1266.64 253.035C1249.8 232.704 1231.76 214.6 1213.03 199.221C1212.14 198.489 1211.25 197.757 1210.35 197.023C1190.88 181.011 1170.74 164.454 1149.82 157C1141.72 154.112 1134.14 152.615 1126.64 152.421C1097.73 151.678 1073.08 175.824 1057.49 196.207C1048.32 208.133 1040.17 221.203 1032.3 233.843C1030.35 236.969 1028.34 240.2 1026.35 243.348C1018.78 255.337 1011.74 268.968 1004.29 283.401C990.737 309.654 976.724 336.8 957.379 358.351C946.186 370.819 934.117 380.17 920.479 386.941C893.612 400.277 866.332 403.779 840.855 405.577C825.145 406.685 808.728 406.496 792.059 405.017C778.37 403.764 764.839 401.62 751.839 398.648C714.258 390.075 677.762 372.371 643.372 346.026C629.599 335.477 615.515 322.934 599.052 306.553C567.762 275.505 544.527 253.638 523.716 235.65C482.325 199.874 450.733 178.826 418.087 165.272C396.23 156.198 373.272 149.962 349.845 146.735C333.593 144.497 316.344 144.697 293.921 147.39C289.327 147.948 284.626 148.605 279.948 149.346C275.529 150.056 271.04 150.87 266.287 151.729C248.737 154.905 228.844 158.506 206.077 157.833C194.077 157.48 181.82 156.51 169.967 155.574C156.496 154.51 142.566 153.408 129.36 153.259C116.119 153.11 103.742 154.314 92.5824 156.842C52.6656 165.879 21.0221 185.893 7.93755 210.379L7.56641 210.122C10.9646 203.76 15.5962 197.652 21.3314 191.965C26.8676 186.474 33.4592 181.35 40.9245 176.731C55.4259 167.758 73.2599 160.711 92.4973 156.356C103.688 153.824 116.092 152.615 129.364 152.764C142.582 152.914 156.519 154.015 169.996 155.081C181.845 156.018 194.097 156.987 206.087 157.341C228.814 158.011 248.685 154.415 266.215 151.243C270.971 150.382 275.463 149.57 279.884 148.858C284.568 148.117 289.272 147.46 293.871 146.9C316.329 144.205 333.606 144.002 349.894 146.247C373.353 149.478 396.344 155.723 418.232 164.811C450.923 178.382 482.547 199.452 523.975 235.258C544.794 253.253 568.036 275.127 599.334 306.183C615.786 322.551 629.854 335.081 643.612 345.619C677.955 371.927 714.397 389.607 751.922 398.167C764.904 401.135 778.42 403.273 792.09 404.526C808.739 406.004 825.135 406.193 840.826 405.087C866.264 403.291 893.498 399.798 920.303 386.492C933.891 379.748 945.918 370.428 957.071 358.004C976.374 336.499 990.373 309.382 1003.91 283.157C1011.37 268.715 1018.41 255.073 1025.99 243.066C1027.98 239.921 1029.99 236.689 1031.94 233.564C1039.82 220.913 1047.97 207.834 1057.16 195.889C1067.33 182.585 1078 172.062 1088.86 164.61C1101.58 155.881 1114.3 151.619 1126.65 151.933C1134.19 152.127 1141.81 153.633 1149.95 156.534C1170.94 164.015 1191.1 180.594 1210.61 196.629C1211.5 197.364 1212.39 198.098 1213.28 198.828C1232.03 214.224 1250.09 232.35 1266.96 252.703C1301.93 294.79 1333.45 348.222 1360.63 411.514L1360.24 411.723Z" fill="#C1B6CC"/>
<path d="M850.474 405.349C849.389 405.349 848.32 405.347 847.269 405.341C831.64 405.266 815.229 403.881 798.495 401.221C784.856 399.012 771.41 395.963 758.53 392.162C740.128 386.742 721.66 378.951 703.634 369.009C686.227 359.407 668.697 347.501 651.528 333.62C634.705 320.02 618.991 304.865 607.181 293.182C579.546 265.92 553.253 243.133 529.033 225.453C489.804 196.819 454.846 179.363 419.013 170.52C397.396 165.185 374.204 162.371 351.874 162.371C351.528 162.371 351.184 162.371 350.838 162.374C331.655 162.448 313.442 166.502 296.621 170.872C292.242 172.017 287.713 173.268 283.159 174.593C280.664 175.328 278.164 176.084 275.52 176.884C256.868 182.535 235.727 188.939 210.043 188.413C194.401 188.092 178.424 186.25 162.974 184.468C152.998 183.316 142.683 182.127 132.844 181.408C119.319 180.421 106.872 180.737 95.846 182.353C56.1419 188.165 23.0235 203.781 7.25208 224.128L6.88867 223.765C14.9783 213.33 27.1467 204.295 43.0554 196.909C58.2489 189.858 76.483 184.635 95.7842 181.81C106.839 180.192 119.319 179.871 132.875 180.863C142.724 181.581 153.044 182.773 163.024 183.925C178.465 185.707 194.432 187.55 210.052 187.868C235.671 188.394 256.775 181.999 275.396 176.358C278.042 175.556 280.542 174.8 283.039 174.066C287.597 172.74 292.13 171.487 296.512 170.342C313.362 165.965 331.606 161.905 350.836 161.828C373.522 161.738 397.13 164.561 419.116 169.988C437.609 174.554 455.538 181.274 473.922 190.532C491.629 199.451 509.741 210.723 529.292 224.996C553.532 242.689 579.844 265.493 607.496 292.773C619.297 304.45 634.999 319.593 651.804 333.178C686.643 361.346 722.591 381.013 758.65 391.637C771.512 395.433 784.941 398.478 798.561 400.685C815.274 403.34 831.662 404.725 847.269 404.798C871.69 404.912 900.048 403.975 927.705 391.303C941.704 384.888 953.815 375.509 964.73 362.63C983.9 340.01 996.608 310.978 1008.9 282.901C1015.22 268.459 1021.19 254.817 1027.69 243.008C1029.77 239.225 1031.87 235.327 1033.9 231.557C1040.75 218.821 1047.84 205.654 1056.01 193.482C1065.35 179.48 1075.37 168.122 1085.79 159.725C1097.87 149.989 1110.19 144.542 1122.4 143.535C1129.94 142.913 1137.59 143.548 1145.79 145.478C1167.71 150.635 1189.44 165.618 1211.62 181.834C1230.96 195.973 1250.21 213.987 1267.29 233.932C1286.26 256.021 1304.08 281.936 1320.27 310.954C1334.68 336.807 1347.89 365.265 1359.51 395.539L1359.07 395.759C1334.1 330.745 1303.11 276.427 1266.95 234.316C1249.89 214.401 1230.67 196.413 1211.36 182.298C1189.22 166.11 1167.53 151.156 1145.69 146.017C1137.53 144.098 1129.93 143.467 1122.44 144.085C1100 145.938 1076.55 163.598 1056.4 193.817C1048.24 205.966 1041.16 219.122 1034.31 231.845C1032.28 235.618 1030.18 239.517 1028.1 243.3C1021.62 255.087 1015.65 268.718 1009.33 283.147C1003.3 296.923 997.066 311.17 989.91 324.864C981.797 340.39 973.676 352.867 965.08 363.012C954.116 375.948 941.952 385.37 927.887 391.815C915.483 397.5 902.151 401.256 887.129 403.305C874.408 405.031 861.631 405.349 850.474 405.349Z" fill="#C1B6CC"/>
<path d="M881.472 406.451C871.615 406.451 862.147 405.783 853.677 405.106C838.102 403.862 821.699 401.279 804.924 397.428C791.343 394.265 777.982 390.312 765.212 385.676C730.246 373.008 695.724 351.921 659.675 321.214C643.954 307.825 629.134 293.418 615.305 279.811C588.003 253.026 560.767 231.308 534.348 215.256C495.495 191.65 459.143 179.1 419.945 175.763C397.611 173.862 374.059 174.638 351.833 178.006C333.23 180.824 315.692 187.625 299.319 194.347C295.223 196.037 290.866 197.884 286.372 199.834C285.249 200.324 284.116 200.823 282.968 201.326C264.111 209.618 242.774 219 215.391 219C214.929 219 214.469 218.998 214.003 218.991C195.477 218.778 176.563 215.771 158.269 212.86C151.016 211.706 143.516 210.515 136.319 209.55C122.262 207.668 110.088 207.112 99.0992 207.855C59.1302 210.559 25.3933 221.497 6.54255 237.871L6.21973 237.39C15.5388 229.296 29.0139 222.269 45.1835 217.068C61.0884 211.952 79.7207 208.558 99.0663 207.25C110.086 206.505 122.291 207.061 136.379 208.947C143.584 209.913 151.086 211.106 158.34 212.258C176.617 215.164 195.514 218.169 214.005 218.382C241.959 218.707 263.643 209.17 282.772 200.757C283.919 200.254 285.053 199.755 286.176 199.262C290.674 197.31 295.033 195.464 299.133 193.773C315.533 187.038 333.104 180.228 351.758 177.401C374.018 174.029 397.609 173.251 419.98 175.155C439.405 176.808 457.925 180.712 476.598 187.086C495.829 193.652 514.8 202.689 534.594 214.718C561.045 230.791 588.316 252.536 615.647 279.347C629.47 292.949 644.281 307.348 659.989 320.724C695.989 351.389 730.459 372.445 765.369 385.094C778.119 389.721 791.463 393.669 805.025 396.828C821.776 400.674 838.157 403.255 853.708 404.495C879.877 406.583 907.716 407.656 935.103 396.1C949.514 390.018 961.709 380.579 972.383 367.242C991.4 343.486 1003.24 311.082 1013.68 282.493C1018.93 268.108 1023.9 254.521 1029.37 242.938C1031.35 238.759 1033.34 234.44 1035.26 230.263C1041.28 217.195 1047.5 203.683 1054.86 191.063C1063.38 176.361 1072.75 164.168 1082.71 154.821C1094.16 144.087 1106.08 137.458 1118.14 135.121C1125.68 133.659 1133.36 133.426 1141.61 134.402C1164.66 137.134 1188.08 150.636 1209.95 164.821C1230.15 177.918 1250.09 195.319 1267.62 215.142C1287.12 237.128 1305.08 263.302 1321.02 292.932C1335.26 319.429 1347.84 348.568 1358.39 379.545L1357.9 379.763C1335.46 313.918 1304.11 257.141 1267.25 215.568C1249.75 195.782 1229.85 178.414 1209.69 165.344C1187.87 151.192 1164.51 137.724 1141.56 135.002C1133.36 134.031 1125.73 134.264 1118.23 135.714C1095.96 140.03 1073.61 159.802 1055.31 191.393C1047.96 203.986 1041.75 217.485 1035.74 230.54C1033.81 234.719 1031.82 239.039 1029.85 243.222C1024.38 254.778 1019.42 268.352 1014.17 282.721C1003.71 311.355 991.856 343.811 972.777 367.647C962.043 381.056 949.78 390.547 935.289 396.665C922.712 401.971 909.146 405.045 893.812 406.053C889.666 406.339 885.537 406.451 881.472 406.451Z" fill="#C1B6CC"/>
<path d="M900.926 408.831C900.785 408.831 900.646 408.831 900.505 408.831C886.576 408.791 872.9 406.853 860.084 404.87C844.533 402.465 828.139 398.682 811.354 393.63C797.835 389.518 784.559 384.657 771.898 379.188C738.329 364.709 705.261 342.346 667.828 308.809C654.347 296.734 641.081 283.731 628.25 271.16C626.645 269.586 625.039 268.014 623.432 266.443C595.989 239.664 567.808 219.012 539.673 205.062C501.146 185.962 462.291 178.093 420.885 181.005C398.182 182.603 374.651 186.971 352.837 193.636C335.626 198.896 320.289 207.335 302.026 217.821C298.324 219.955 294.371 222.259 289.589 225.073L289.322 225.231C280.096 230.696 269.639 236.888 257.909 241.596C244.438 247.004 231.369 249.607 217.967 249.576C197.069 249.516 175.742 245.094 155.119 240.814C150.066 239.765 144.839 238.682 139.794 237.701C125.325 234.894 113.078 233.476 102.352 233.369C62.8562 232.973 27.6714 239.629 5.82064 251.627L5.56934 251.033C16.2724 245.155 30.7101 240.385 47.3205 237.237C63.9618 234.083 82.9943 232.518 102.357 232.711C113.115 232.819 125.393 234.239 139.893 237.053C144.942 238.033 150.169 239.117 155.223 240.165C175.822 244.439 197.121 248.857 217.969 248.916C218.062 248.916 218.157 248.916 218.249 248.916C248.07 248.916 270.789 235.463 289.056 224.646L289.324 224.488C294.109 221.672 298.062 219.368 301.765 217.234C320.059 206.731 335.423 198.276 352.689 193.001C374.539 186.323 398.109 181.948 420.851 180.348C441.112 178.924 460.224 180.009 479.282 183.672C499.818 187.617 519.649 194.416 539.905 204.46C568.094 218.436 596.324 239.121 623.811 265.944C625.418 267.515 627.024 269.089 628.628 270.663C641.454 283.23 654.716 296.228 668.186 308.294C705.57 341.79 738.59 364.122 772.103 378.577C784.746 384.04 798.003 388.891 811.503 393C828.264 398.044 844.635 401.821 860.161 404.221C887.971 408.525 915.198 411.511 942.511 400.924C957.334 395.178 969.612 385.68 980.045 371.884C998.892 346.963 1009.19 312.431 1018.27 281.962C1022.52 267.698 1026.54 254.223 1031.07 242.9C1032.82 238.543 1034.57 234.037 1036.26 229.678C1041.55 216.049 1047.01 201.958 1053.72 188.673C1061.44 173.265 1070.16 160.234 1079.65 149.942C1090.46 138.213 1101.98 130.405 1113.89 126.738C1121.27 124.465 1128.81 123.357 1136.91 123.357C1137.09 123.357 1137.26 123.357 1137.44 123.36C1162.62 123.509 1188.53 136.518 1208.3 147.834C1229.35 159.891 1249.98 176.677 1267.96 196.377C1287.99 218.262 1306.09 244.694 1321.77 274.939C1335.85 302.08 1347.79 331.903 1357.28 363.583L1356.73 363.797C1342.61 316.658 1315.68 249.433 1267.56 196.854C1249.62 177.198 1229.04 160.452 1208.03 148.423C1188.33 137.138 1162.5 124.166 1137.44 124.019C1129.19 123.964 1121.54 125.068 1114.04 127.376C1091.97 134.17 1070.73 156.056 1054.22 189C1047.53 202.255 1042.07 216.33 1036.79 229.944C1035.09 234.305 1033.34 238.813 1031.6 243.172C1027.08 254.467 1023.07 267.924 1018.82 282.173C1009.72 312.697 999.406 347.295 980.485 372.312C969.983 386.201 957.622 395.763 942.699 401.546C930.051 406.446 916.381 408.831 900.926 408.831Z" fill="#C1B6CC"/>
<path d="M916.396 411.927C913.396 411.927 910.33 411.817 907.191 411.597C893.451 410.637 880.097 407.755 866.489 404.633C850.714 401.015 834.782 396.175 817.783 389.835C804.333 384.775 791.144 379.011 778.581 372.7C746.712 356.715 715.068 333.183 675.981 296.403C666.273 287.269 656.569 277.689 647.185 268.424C642.076 263.381 636.795 258.165 631.562 253.072C603.792 226.113 574.669 206.531 545.002 194.868C505.802 179.456 465.514 176.634 421.832 186.24C398.754 191.316 375.244 199.275 353.848 209.257C336.659 217.276 321.686 228.538 305.833 240.461L304.737 241.285C302.261 243.153 299.758 245.048 297.224 246.965C295.764 248.071 294.295 249.183 292.813 250.304C283.569 257.332 273.585 264.663 262.136 270.306C248.842 276.856 235.694 280.079 221.935 280.158C199.029 280.285 175.664 274.232 153.071 268.371C149.847 267.534 146.511 266.67 143.273 265.85C128.093 262.003 116.125 259.789 105.606 258.879C66.7872 255.523 30.1527 257.888 5.09307 265.371L4.93262 264.68C30.0579 257.178 66.7678 254.804 105.654 258.167C116.203 259.079 128.201 261.3 143.41 265.153C146.65 265.975 149.986 266.839 153.212 267.677C175.529 273.464 198.598 279.446 221.2 279.446C221.444 279.446 221.687 279.446 221.933 279.444C251.168 279.276 271.979 265.283 292.467 249.711C293.949 248.59 295.418 247.477 296.878 246.372C299.412 244.453 301.913 242.56 304.391 240.689L305.487 239.865C321.367 227.922 336.365 216.641 353.61 208.596C375.045 198.594 398.595 190.621 421.714 185.536C465.506 175.906 505.902 178.737 545.208 194.191C574.95 205.885 604.14 225.511 631.972 252.529C637.204 257.624 642.487 262.838 647.596 267.883C656.977 277.146 666.679 286.724 676.381 295.851C715.422 332.589 747.021 356.088 778.835 372.047C791.38 378.347 804.549 384.104 817.98 389.156C834.954 395.487 850.863 400.32 866.615 403.932C890.526 409.416 920.285 416.244 949.92 405.728C965.156 400.323 977.516 390.765 987.705 376.507C1006.37 350.393 1015.02 313.663 1022.66 281.259C1025.98 267.182 1029.11 253.885 1032.77 242.85C1034.19 238.55 1035.62 234.104 1037 229.802C1041.63 215.375 1046.42 200.458 1052.57 186.271C1059.51 170.147 1067.59 156.278 1076.57 145.05C1086.76 132.327 1097.88 123.343 1109.63 118.346C1117.17 115.139 1124.9 113.163 1133.26 112.303C1144.46 111.152 1156.38 112.383 1169.7 116.058C1180.97 119.171 1193.05 124.002 1206.63 130.832C1228.54 141.847 1249.86 158.019 1268.29 177.599C1288.85 199.381 1307.1 226.073 1322.53 256.932C1336.42 284.719 1347.74 315.226 1356.17 347.608L1355.57 347.81C1337.77 279.446 1306.62 219.182 1267.86 178.122C1249.48 158.595 1228.22 142.469 1206.38 131.487C1177.11 116.772 1153.9 110.901 1133.32 113.016C1125.02 113.869 1117.34 115.832 1109.85 119.015C1081.89 130.9 1063.58 162.321 1053.14 186.585C1047 200.737 1042.22 215.636 1037.59 230.046C1036.21 234.35 1034.78 238.799 1033.36 243.101C1029.71 254.103 1026.58 267.384 1023.27 281.444C1015.62 313.918 1006.94 350.725 988.192 376.958C977.922 391.328 965.463 400.962 950.105 406.412C939.696 410.105 928.595 411.927 916.396 411.927Z" fill="#C1B6CC"/>
<path d="M929.8 415.474C909.359 415.474 889.706 409.502 872.892 404.393C857.074 399.588 841.15 393.583 824.209 386.036C810.835 380.035 797.731 373.366 785.263 366.211C747.888 344.787 714.569 314.036 684.132 283.996C677.917 277.863 671.638 271.541 665.569 265.428C657.141 256.938 648.425 248.161 639.691 239.702C611.506 212.477 581.442 193.962 550.336 184.67C510.096 172.653 468.372 174.875 422.78 191.467C399.306 200.009 375.819 211.561 354.86 224.873C338.694 235.139 325.016 248.099 310.536 261.82C309.509 262.792 308.481 263.768 307.447 264.744L306.886 265.276C303.366 268.615 299.726 272.066 296.036 275.53C287.195 283.868 277.458 292.492 266.196 299.08C253.123 306.727 239.944 310.541 225.901 310.739C201.251 311.089 176.127 303.208 151.833 295.587C150.13 295.053 148.435 294.521 146.748 293.995C130.727 288.997 119.04 286.033 108.857 284.385C71.012 278.261 32.9239 276.335 4.35778 279.103L4.2998 278.335C32.9123 275.561 71.0565 277.489 108.951 283.622C119.163 285.275 130.876 288.245 146.925 293.252C148.613 293.778 150.308 294.31 152.013 294.846C176.261 302.452 201.336 310.313 225.891 309.97C256.388 309.539 277.866 291.661 295.603 274.937C299.293 271.473 302.933 268.021 306.453 264.685L307.014 264.153C308.048 263.174 309.076 262.201 310.103 261.229C324.608 247.484 338.309 234.501 354.529 224.2C375.528 210.864 399.058 199.293 422.573 190.735C444.188 182.87 464.491 178.328 484.639 176.851C507.114 175.205 529.274 177.585 550.506 183.927C581.711 193.247 611.864 211.816 640.128 239.115C648.868 247.578 657.585 256.358 666.015 264.849C672.085 270.963 678.359 277.282 684.572 283.413C714.979 313.421 748.257 344.138 785.565 365.523C798.015 372.667 811.1 379.327 824.455 385.32C841.371 392.855 857.27 398.852 873.064 403.65C897.316 411.019 927.498 420.19 957.321 410.539C972.97 405.475 985.411 395.858 995.357 381.139C1013.83 353.795 1020.74 314.806 1026.84 280.404C1029.29 266.582 1031.6 253.527 1034.46 242.806C1035.51 238.84 1036.57 234.743 1037.6 230.78C1041.61 215.278 1045.75 199.246 1051.42 183.874C1057.59 167.021 1065.01 152.31 1073.49 140.157C1083.05 126.442 1093.77 116.282 1105.36 109.958C1112.89 105.851 1120.65 103.005 1129.08 101.253C1140.44 98.8942 1153.04 98.9733 1166.54 101.488C1178.36 103.691 1191.29 107.843 1204.96 113.833C1227.72 123.806 1249.73 139.363 1268.62 158.821C1289.71 180.502 1308.1 207.452 1323.28 238.926C1336.99 267.36 1347.68 298.552 1355.05 331.635L1354.39 331.824C1338.78 261.724 1308.15 200.486 1268.16 159.393C1249.34 139.998 1227.4 124.492 1204.72 114.552C1175.31 101.668 1150.61 97.5643 1129.2 102.011C1120.83 103.75 1113.13 106.577 1105.66 110.652C1078.08 125.699 1061.28 158.936 1052.05 184.171C1046.39 199.504 1042.25 215.513 1038.25 230.995C1037.22 234.958 1036.16 239.058 1035.11 243.028C1032.26 253.713 1029.95 266.751 1027.5 280.556C1024.57 297.106 1021.24 315.863 1016.42 333.449C1010.89 353.597 1004.17 369.35 995.894 381.607C991.106 388.694 985.604 394.726 979.541 399.535C973.019 404.708 965.606 408.66 957.506 411.28C948.239 414.281 938.94 415.474 929.8 415.474Z" fill="#C1B6CC"/>
<path d="M941.882 419.367C935.124 419.367 928.043 418.62 920.564 417.127C905.835 414.188 891.735 408.855 879.294 404.153C863.614 398.225 847.241 390.85 830.635 382.235C817.345 375.302 804.326 367.727 791.943 359.717C756.401 336.752 725.78 306.217 692.281 271.587C689.304 268.509 686.281 265.37 683.358 262.332C671.847 250.376 659.946 238.013 647.82 226.332C619.167 198.789 588.163 181.342 555.669 174.474C514.681 165.811 470.288 173.285 423.727 196.692C399.835 208.703 376.37 223.844 355.871 240.482C340.436 253.01 327.73 267.779 314.278 283.417C312.911 285.007 311.539 286.6 310.159 288.201C306.724 292.188 303.024 296.468 299.26 300.752C291.368 309.767 281.749 320.039 270.257 327.849C257.393 336.594 244.181 341.001 229.869 341.32C203.669 341.907 176.999 332.041 151.207 322.501L150.225 322.139C137.597 317.47 124.237 312.752 112.11 309.888C75.1427 301.159 36.6158 295.098 3.62891 292.823L3.67336 292.001C36.6951 294.279 75.2568 300.343 112.257 309.081C124.419 311.954 137.801 316.678 150.449 321.354L151.431 321.716C177.167 331.235 203.783 341.076 229.855 340.493C259.966 339.821 280.761 320.714 298.748 300.165C302.512 295.883 306.208 291.603 309.643 287.618C311.023 286.02 312.395 284.424 313.762 282.837C327.237 267.173 339.966 252.376 355.451 239.807C375.99 223.136 399.499 207.966 423.435 195.933C445.28 184.953 466.777 177.387 487.325 173.448C510.804 168.948 533.843 169.019 555.804 173.659C588.422 180.552 619.54 198.061 648.289 225.699C660.425 237.391 672.332 249.758 683.849 261.721C686.772 264.757 689.795 267.896 692.772 270.973C726.238 305.571 756.826 336.073 792.305 358.998C804.67 366.995 817.67 374.559 830.94 381.483C847.523 390.085 863.869 397.449 879.526 403.369C904.07 412.649 934.615 424.197 964.736 415.349C980.801 410.629 993.323 400.955 1003.02 385.77C1021.29 357.16 1026.57 314.038 1030.82 279.388C1032.48 265.891 1034.04 253.144 1036.16 242.768C1036.83 239.497 1037.5 236.127 1038.15 232.867C1041.53 215.933 1045.04 198.419 1050.28 181.485C1058.39 155.13 1073.78 119.876 1101.11 101.58C1108.65 96.5285 1116.44 92.8092 1124.9 90.2109C1147.06 83.3151 1173.43 85.5463 1203.29 96.8384C1226.91 105.77 1249.62 120.711 1268.96 140.048C1290.59 161.626 1309.12 188.835 1324.04 220.927C1330.89 235.646 1336.93 251.367 1342.02 267.654C1346.88 283.211 1350.89 299.365 1353.94 315.669L1353.23 315.841C1339.8 243.999 1309.7 181.788 1268.48 140.666C1249.21 121.401 1226.59 106.517 1203.06 97.6188C1173.34 86.3772 1147.11 84.1526 1125.09 91.0044C1116.69 93.5829 1108.96 97.2737 1101.48 102.288C1074.34 120.456 1059.03 155.53 1050.97 181.755C1045.73 198.646 1042.24 216.135 1038.86 233.048C1038.21 236.308 1037.53 239.68 1036.86 242.953C1034.75 253.293 1033.19 266.023 1031.54 279.5C1029.4 296.936 1026.98 316.698 1022.84 335.35C1018.08 356.782 1011.79 373.434 1003.6 386.253C998.935 393.567 993.472 399.735 987.371 404.584C980.799 409.809 973.243 413.7 964.915 416.145C957.607 418.294 949.973 419.367 941.882 419.367Z" fill="#C1B6CC"/>
<path d="M953.014 423.478C944.915 423.478 936.373 422.285 927.249 419.891C912.465 416.015 898.242 409.583 885.693 403.908C869.894 396.764 853.531 388.193 837.058 378.431C823.856 370.572 810.924 362.091 798.622 353.222C764.771 328.833 735.737 297.398 704.998 264.122C703.477 262.476 701.956 260.827 700.431 259.178C686.136 243.72 671.356 227.735 655.948 212.963C626.796 185.07 594.853 168.689 561.006 164.275C518.491 158.729 472.623 171.393 424.673 201.911C400.688 217.175 376.612 236.416 356.88 256.088C341.98 270.941 330.03 287.654 317.379 305.349C315.881 307.444 314.379 309.546 312.865 311.651C309.842 315.865 306.244 320.862 302.479 325.973C295.505 335.462 286.002 347.522 274.315 356.594C261.656 366.422 248.414 371.431 233.834 371.904C221.849 372.245 208.623 370.141 193.399 365.47C180.328 361.46 167.684 356.22 153.693 350.285C140.921 344.8 127.443 339.136 115.35 335.394C79.5289 324.311 41.6921 314.606 2.89258 306.543L3.03175 305.679C41.8544 313.744 79.7125 323.458 115.553 334.546C127.678 338.298 141.177 343.972 153.963 349.46C177.415 359.412 206.601 371.801 233.812 371.025C264.922 370.014 284.916 348.502 301.886 325.406C305.649 320.299 309.245 315.305 312.266 311.093C313.779 308.987 315.281 306.886 316.777 304.793C329.45 287.069 341.422 270.327 356.37 255.426C376.142 235.715 400.264 216.436 424.296 201.144C472.391 170.534 518.418 157.837 561.095 163.403C577.458 165.537 593.531 170.494 608.864 178.135C625.316 186.332 641.325 197.826 656.447 212.293C671.872 227.08 686.662 243.074 700.964 258.543C702.489 260.194 704.013 261.84 705.534 263.487C736.244 296.734 765.252 328.138 799.038 352.481C811.322 361.337 824.234 369.807 837.418 377.652C853.868 387.399 870.206 395.959 885.981 403.092C910.774 414.303 941.63 428.255 972.141 420.163C988.668 415.78 1001.27 406.047 1010.67 390.409C1028.78 360.539 1032 314.911 1034.59 278.25C1035.52 265.138 1036.4 252.753 1037.85 242.738C1038.15 240.672 1038.45 238.594 1038.75 236.506C1041.46 217.643 1044.26 198.136 1049.14 179.1C1056.09 151.719 1070.01 114.592 1096.84 93.2075C1104.33 87.2416 1112.14 82.6518 1120.72 79.1742C1132.65 74.2964 1145.94 72.0037 1160.23 72.3554C1173.27 72.6764 1187.2 75.1977 1201.62 79.8469C1226.09 87.7318 1249.49 102.057 1269.28 121.274C1291.45 142.746 1310.12 170.219 1324.79 202.926C1331.52 217.933 1337.35 233.978 1342.11 250.614C1346.67 266.547 1350.28 283.064 1352.82 299.706L1352.06 299.856C1340.99 227.335 1310.63 162.488 1268.78 121.942C1249.07 102.809 1225.77 88.543 1201.41 80.6888C1171.37 71.0035 1143.56 70.7661 1120.98 79.9986C1112.46 83.4497 1104.71 88.0044 1097.28 93.9241C1070.64 115.161 1056.8 152.097 1049.88 179.342C1045.02 198.328 1042.22 217.806 1039.51 236.644C1039.21 238.733 1038.91 240.812 1038.61 242.879C1037.16 252.856 1036.29 265.225 1035.36 278.318C1032.76 315.085 1029.53 360.845 1011.31 390.905C1006.78 398.443 1001.36 404.752 995.206 409.652C988.585 414.923 980.884 418.748 972.317 421.021C966.131 422.656 959.725 423.478 953.014 423.478Z" fill="#C1B6CC"/>
<path d="M963.477 427.758C954.248 427.758 944.471 426.061 933.934 422.654C919.027 417.834 904.715 410.305 892.09 403.664C876.135 395.271 859.78 385.5 843.479 374.628C830.371 365.857 817.526 356.469 805.298 346.728C775.187 322.75 749.453 293.376 722.207 262.276C717.754 257.191 713.147 251.935 708.578 246.767C692.514 228.61 678.798 213.638 664.074 199.594C634.402 171.332 601.521 156.017 566.342 154.074C522.138 151.632 474.789 169.481 425.613 207.125C401.184 225.827 377.129 248.755 357.882 271.686C343.383 288.962 332.048 307.768 320.047 327.677C318.561 330.143 317.069 332.618 315.567 335.096C312.891 339.516 309.35 345.341 305.695 351.182C290.312 375.819 270.214 401.184 237.796 402.481C236.785 402.519 235.77 402.536 234.757 402.536C209.442 402.536 183.598 391.143 157.158 378.422L155.507 377.622C142.411 371.265 130.04 365.261 118.589 360.891C75.434 344.422 33.6983 330.521 2.15918 320.251L2.38535 319.352C33.9322 329.626 75.6795 343.53 118.85 360.006C130.332 364.387 142.716 370.399 155.83 376.762L157.479 377.563C184.887 390.75 211.654 402.512 237.767 401.549C269.826 400.266 289.755 375.096 305.024 350.643C308.677 344.807 312.215 338.986 314.89 334.568C316.392 332.088 317.882 329.615 319.369 327.149C331.388 307.209 342.741 288.373 357.287 271.042C376.573 248.062 400.675 225.089 425.153 206.349C447.872 188.957 470.598 175.603 492.7 166.654C518.06 156.386 542.851 151.84 566.381 153.14C601.742 155.092 634.789 170.481 664.6 198.875C679.345 212.942 693.075 227.929 709.154 246.101C713.725 251.269 718.332 256.527 722.787 261.612C750.006 292.681 775.715 322.027 805.768 345.957C817.979 355.686 830.804 365.059 843.893 373.817C860.17 384.676 876.501 394.432 892.432 402.811C917.442 415.967 948.567 432.339 979.546 424.969C996.479 420.94 1009.16 411.149 1018.32 395.038C1036.2 363.808 1037.28 315.613 1038.14 276.887C1038.42 264.252 1038.69 252.316 1039.54 242.699L1039.56 242.479C1041.47 220.943 1043.45 198.675 1047.98 176.704C1051.91 157.54 1057.38 140.311 1064.23 125.491C1071.97 108.782 1081.5 95.1005 1092.57 84.8239C1099.98 77.9479 1107.81 72.4854 1116.53 68.1264C1140.07 56.2803 1168.91 54.4514 1199.94 62.8419C1212.43 66.2183 1224.75 71.3335 1236.56 78.0425C1248.44 84.7909 1259.56 93.0188 1269.61 102.493C1292.31 123.862 1311.13 151.594 1325.54 184.921C1338.5 214.876 1347.54 249.047 1351.7 283.737L1350.89 283.862C1341.99 209.616 1312.18 143.771 1269.08 103.212C1248.93 84.215 1224.96 70.5686 1199.75 63.7564C1168.9 55.4142 1140.24 57.2233 1116.86 68.9881C1108.22 73.3141 1100.44 78.7327 1093.09 85.5537C1072.42 104.742 1057.1 136.337 1048.78 176.922C1044.26 198.836 1042.29 221.073 1040.38 242.578L1040.36 242.798C1039.51 252.379 1039.24 264.298 1038.96 276.916C1038.09 315.76 1037.01 364.101 1019.01 395.55C1014.6 403.319 1009.22 409.764 1003.03 414.706C996.351 420.034 988.509 423.795 979.714 425.89C974.475 427.134 969.077 427.758 963.477 427.758Z" fill="#C1B6CC"/>
<path d="M238.397 433.142C227.077 433.142 214.751 430.634 200.839 425.512C187.016 420.424 173.345 413.398 160.63 406.566C158.328 405.322 156.043 404.08 153.774 402.847C142.477 396.707 131.807 390.908 121.834 386.391C82.0703 368.386 44.1678 352.202 7.51202 336.556L1.43848 333.962L1.74388 333.036L7.81743 335.63C44.4751 351.281 82.3835 367.464 122.155 385.474C132.155 390.003 142.839 395.808 154.149 401.956C156.416 403.19 158.701 404.432 161.001 405.674C187.103 419.698 214.834 433.29 241.73 432.078C274.792 430.513 294.605 401.224 308.171 375.886C311.647 369.406 314.995 362.947 317.523 358.045C318.919 355.344 320.305 352.644 321.687 349.951C333.15 327.629 343.976 306.544 358.215 286.663C377.01 260.425 401.089 233.752 426.021 211.562C449.152 190.973 472.493 174.707 495.399 163.214C521.673 150.032 547.335 143.191 571.674 142.881C608.297 142.261 642.312 156.589 672.761 185.462C689.64 201.487 704.774 218.822 717.354 233.667C724.199 241.745 731.043 250.026 737.664 258.034C761.098 286.384 785.33 315.697 812.506 339.44C824.646 350.048 837.388 360.327 850.376 369.988C866.449 381.918 882.772 392.869 898.893 402.537C924.092 417.647 955.451 436.453 986.957 429.779C1004.3 426.106 1017.06 416.258 1025.98 399.673C1043.62 367.027 1042.43 316.191 1041.47 275.345C1041.19 263.265 1040.92 251.855 1041.24 242.668C1041.97 221.959 1043.06 197.891 1046.84 174.317C1050.03 154.342 1054.84 136.271 1061.15 120.607C1068.28 102.887 1077.42 88.0315 1088.31 76.4514C1095.53 68.7775 1103.61 62.2642 1112.35 57.0897C1124.81 49.6817 1138.79 45.0238 1153.91 43.2476C1168.06 41.5836 1182.99 42.4585 1198.27 45.8459C1211.16 48.7035 1223.86 53.4033 1236.02 59.8176C1248.26 66.2716 1259.68 74.3126 1269.94 83.7165C1281.77 94.5448 1292.66 107.332 1302.28 121.723C1311.4 135.359 1319.48 150.566 1326.3 166.921C1339.07 197.517 1347.46 232.394 1350.59 267.774L1349.72 267.873C1343.01 191.896 1313.73 125.056 1269.4 84.488C1249.09 65.8869 1223.77 52.5086 1198.1 46.8175C1166.37 39.7811 1136.85 43.6367 1112.75 57.9668C1104.09 63.0996 1096.06 69.5623 1088.9 77.1746C1068.38 98.9939 1054.52 131.736 1047.7 174.496C1043.92 198.005 1042.83 222.032 1042.11 242.708C1041.79 251.861 1042.06 263.254 1042.34 275.318C1042.81 295.469 1043.35 318.311 1041.55 340.391C1039.47 366.014 1034.62 385.573 1026.72 400.189C1022.42 408.186 1017.08 414.77 1010.86 419.755C1004.13 425.141 996.141 428.84 987.118 430.751C982.565 431.716 978.017 432.153 973.496 432.153C946.42 432.153 920.183 416.418 898.489 403.409C882.344 393.726 865.997 382.76 849.903 370.812C836.895 361.138 824.135 350.844 811.979 340.22C784.746 316.429 760.489 287.085 737.032 258.709C730.413 250.703 723.57 242.424 716.729 234.35C704.167 219.523 689.054 202.213 672.206 186.219C641.922 157.499 608.106 143.255 571.688 143.866C514.495 144.596 461.198 181.501 426.559 212.335C401.677 234.482 377.646 261.098 358.892 287.283C344.696 307.104 333.884 328.156 322.439 350.444C321.057 353.137 319.669 355.836 318.273 358.54C315.743 363.444 312.393 369.907 308.915 376.394C303.221 387.031 294.281 402.515 282.439 414.121C276.688 419.757 270.568 424.187 264.249 427.288C257.203 430.746 249.638 432.689 241.766 433.061C240.651 433.116 239.528 433.142 238.397 433.142Z" fill="#C1B6CC"/>
<path d="M242.031 463.744C230.697 463.744 218.396 461.043 204.557 455.53C190.23 449.823 176.064 441.8 164.099 434.702C160.423 432.517 156.754 430.301 153.205 428.158C143.284 422.167 133.913 416.507 125.077 411.886C93.3469 395.29 61.8233 379.087 31.3358 363.416C21.2512 358.233 10.8246 352.874 0.71875 347.668L1.09761 346.716C11.2034 351.922 21.6301 357.281 31.7146 362.464C62.2022 378.135 93.7296 394.34 125.462 410.939C134.321 415.573 143.704 421.238 153.636 427.236C157.183 429.38 160.852 431.593 164.524 433.778C189.34 448.493 218.125 464.07 245.688 462.603C279.529 460.761 298.536 428.78 311.318 401.124C314.594 394.039 317.762 386.926 320.155 381.521C321.385 378.746 322.606 375.974 323.826 373.209C334.79 348.337 345.145 324.844 359.144 302.284C377.351 272.943 401.411 242.575 426.889 216.774C462.369 180.999 517.207 137.36 576.964 132.627C614.967 129.537 649.945 142.8 680.922 172.054C694.839 185.204 708.602 200.371 725.551 221.239C734.116 231.784 742.616 242.713 750.835 253.28C772.22 280.773 794.33 309.202 819.244 332.932C831.314 344.43 843.97 355.613 856.859 366.168C872.466 378.938 888.783 391.085 905.352 402.274C930.805 419.356 962.481 440.619 994.366 434.6C1011.85 431.369 1025.06 421.18 1033.63 404.32C1051.03 370.198 1047.3 314.372 1044.57 273.611C1043.8 262.171 1043.08 251.367 1042.94 242.651C1042.62 223.281 1042.65 197.74 1045.7 171.944C1050.96 127.244 1063.86 92.3012 1084.05 68.0924C1091.12 59.5634 1099.24 52.1533 1108.16 46.0665C1120.86 37.3968 1135.19 31.565 1150.74 28.7359C1165.4 26.0717 1180.83 26.1134 1196.6 28.8612C1209.9 31.2308 1222.98 35.5261 1235.48 41.6239C1248.1 47.7833 1259.81 55.6308 1270.27 64.949C1282.37 75.7158 1293.42 88.5467 1303.12 103.088C1312.31 116.868 1320.37 132.291 1327.06 148.931C1339.63 180.172 1347.38 215.752 1349.47 251.825L1348.56 251.893C1344.04 174.182 1315.3 106.343 1269.71 65.7733C1249.04 47.3678 1223.02 34.6249 1196.46 29.8943C1163.71 24.19 1133.34 30.0922 1108.64 46.9634C1099.79 52.9996 1091.74 60.3504 1084.72 68.8113C1064.67 92.8596 1051.85 127.604 1046.61 172.085C1043.57 197.81 1043.55 223.301 1043.86 242.634C1044 251.319 1044.72 262.11 1045.49 273.534C1046.9 294.604 1048.49 318.487 1047.58 341.803C1046.52 368.953 1042.22 389.575 1034.43 404.846C1030.24 413.082 1024.94 419.809 1018.68 424.838C1011.9 430.292 1003.77 433.923 994.519 435.634C980.176 438.34 964.739 435.908 947.324 428.199C932.187 421.497 917.683 411.763 904.888 403.177C888.294 391.973 871.956 379.808 856.325 367.021C843.417 356.45 830.744 345.252 818.657 333.738C793.69 309.96 771.555 281.5 750.149 253.979C741.933 243.414 733.436 232.491 724.878 221.955C707.959 201.125 694.221 185.986 680.336 172.867C649.543 143.781 614.787 130.596 577.026 133.667C517.526 138.382 462.87 181.887 427.496 217.555C402.069 243.302 378.059 273.607 359.89 302.887C345.93 325.383 335.59 348.842 324.644 373.677C323.424 376.445 322.202 379.217 320.973 381.991C318.578 387.401 315.408 394.521 312.128 401.612C299.234 429.514 280.036 461.781 245.728 463.647C244.509 463.711 243.273 463.744 242.031 463.744Z" fill="#C1B6CC"/>
<path d="M245.738 494.35C214.771 494.35 182.279 472.722 153.476 453.547C144.624 447.656 136.264 442.09 128.319 437.384L0 361.377L0.446538 360.403L128.766 436.41C136.732 441.128 145.102 446.7 153.965 452.6C183.882 472.516 217.793 495.089 249.647 493.133C284.234 491.011 302.455 456.337 314.465 426.369C318.393 416.567 322.185 406.594 325.854 396.948C335.888 370.57 346.263 343.292 360.07 317.905C371.034 297.748 384.654 276.608 399.458 256.773C415.697 235.013 433.084 215.049 451.133 197.437C471.033 178.021 491.268 161.958 511.273 149.699C533.4 136.141 555.199 127.288 576.067 123.387C617.873 115.572 655.895 127.431 689.075 158.639C716.65 184.571 740.086 216.639 762.75 247.651C782.479 274.645 802.878 302.555 825.977 326.414C852.659 353.971 881.536 379.402 911.809 401.997C937.315 421.036 969.059 444.733 1001.78 439.406C1029.41 434.909 1045.38 413.885 1050.61 375.131C1055.06 342.167 1050.83 303.063 1047.43 271.644C1046.27 260.937 1045.18 250.823 1044.64 242.621C1041.67 197.409 1043.56 160.086 1050.42 128.522C1054.69 108.828 1061 91.2731 1069.17 76.3451C1078.29 59.6696 1090 45.7682 1103.98 35.0278C1116.07 25.736 1129.69 18.9875 1144.48 14.9692C1158.55 11.1443 1173.37 9.8628 1188.52 11.1597C1218.32 13.7096 1247.47 26.1427 1270.6 46.1661C1282.96 56.8691 1294.18 69.7462 1303.96 84.4367C1313.22 98.3601 1321.25 114 1327.81 130.926C1340.18 162.811 1347.28 199.097 1348.35 235.857L1347.38 235.895C1345.1 157.613 1316.18 87.013 1270.01 47.0431C1220.98 4.59591 1151.38 -0.0752563 1104.52 35.94C1058.09 71.6168 1038.82 139.196 1045.6 242.54C1046.13 250.715 1047.23 260.816 1048.39 271.51C1051.79 302.997 1056.04 342.184 1051.57 375.298C1049.13 393.334 1044.24 407.829 1037.02 418.383C1032.96 424.316 1028.07 429.165 1022.48 432.792C1016.52 436.652 1009.61 439.244 1001.91 440.497C998.766 441.009 995.566 441.266 992.313 441.266C980.458 441.266 967.83 437.857 953.993 430.95C938.405 423.168 923.363 411.94 911.275 402.918C880.962 380.29 852.044 354.826 825.324 327.23C802.172 303.32 781.752 275.377 762.002 248.354C739.367 217.382 715.96 185.354 688.455 159.488C655.497 128.493 617.736 116.711 576.218 124.473C492.236 140.172 405.726 236.049 360.886 318.486C347.115 343.802 336.754 371.042 326.734 397.386C323.063 407.036 319.268 417.016 315.337 426.826C307.363 446.722 299.488 460.969 290.553 471.656C284.977 478.326 278.926 483.584 272.571 487.283C265.503 491.396 257.806 493.735 249.691 494.234C248.381 494.311 247.061 494.35 245.738 494.35Z" fill="#C1B6CC"/>
</g>
</svg>
