<svg width="60" height="60" viewBox="0 0 60 60" fill="none" xmlns="http://www.w3.org/2000/svg">
<path fill-rule="evenodd" clip-rule="evenodd" d="M44.1378 59.9915C39.8105 59.8322 27.5468 58.1377 14.7031 45.2996C1.86238 32.4586 0.170514 20.2003 0.00823992 15.8709C-0.232166 9.27311 4.82238 2.86459 10.6612 0.36187C11.3644 0.0583196 12.1343 -0.0572512 12.8956 0.0264982C13.6569 0.110248 14.3833 0.39044 15.0036 0.83958C19.8117 4.34278 23.1293 9.64266 25.9781 13.8099C26.6049 14.7254 26.873 15.8395 26.7311 16.9399C26.5892 18.0403 26.0474 19.05 25.2088 19.7767L19.3459 24.1302C19.0627 24.3347 18.8633 24.635 18.7848 24.9754C18.7063 25.3158 18.7541 25.6731 18.9192 25.9809C20.2475 28.3935 22.6094 31.9869 25.314 34.6909C28.0186 37.3949 31.784 39.9126 34.3653 41.3908C34.689 41.5725 35.0699 41.6233 35.4299 41.5327C35.7898 41.4422 36.1014 41.2172 36.3006 40.9041L40.117 35.0965C40.8187 34.1646 41.8538 33.5404 43.0055 33.3544C44.1572 33.1685 45.3361 33.4353 46.2955 34.099C50.5236 37.0253 55.458 40.2852 59.0701 44.9091C59.5558 45.5337 59.8647 46.2773 59.9647 47.0622C60.0646 47.847 59.9518 48.6443 59.638 49.3707C57.1228 55.2384 50.758 60.2348 44.1378 59.9915Z" fill="white"/>
</svg>
